<svg width="1728" height="1324" viewBox="0 0 1728 1324" fill="none"
  xmlns="http://www.w3.org/2000/svg">
  <g clip-path="url(#clip0_32_54)">
    <path opacity="0.51"
      d="M1831.49 684.392C1881.41 731.013 1970.11 785.115 2042.69 844.315C2063.53 901.512 2009.5 958.559 1903.93 1007.4C1740.96 1051.74 1651.05 1041.71 1679.62 1057.73C1688.8 1116.51 1666.68 1203.83 1614.38 1287.23C1540.05 1327.67 1448.12 1307.1 1349.97 1249.38C1247.16 1220.12 1148.01 1256.08 1056.16 1342.98C965.007 1411.25 880.956 1397.98 804.897 1316.04C728.838 1256.62 664.389 1276.58 612.144 1346.34C560.574 1394.27 521.37 1363.67 492.399 1277.23C458.757 1196.45 425.439 1168.25 382.536 1190.26C317.655 1233.06 230.58 1247.7 121.716 1216.92C3.45605 1148.69 -106.623 1063.85 -182.52 985.917C-211.518 924.599 -186.948 883.853 -126.09 855.618C-76.248 838.158 -65.529 818.762 -115.695 791.785C-217.647 765.09 -321.732 728.498 -371.682 681.893C-343.629 635.272 -248.697 580.839 -139.212 519.62C-69.255 458.683 -58.941 393.294 -96.444 329.957C-176.688 259.388 -75.654 245.883 91.017 261.986C206.253 231.683 304.56 161.776 381.699 70.4368C436.941 -0.0827527 479.493 -13.7034 518.832 32.8683C551.34 85.1498 591.624 89.2376 643.032 23.3355C694.44 -64.396 758.16 -93.8385 834.219 -34.424C910.251 47.4985 995.031 70.2547 1087.05 19.9759C1179.06 -48.9218 1277.15 -58.3884 1376.43 5.0312C1468.88 96.9168 1551.58 159.294 1613.52 167.387C1659.04 116.512 1626.99 181.338 1642.71 299.853C1710.8 376.843 1816.21 436.937 1933.61 481.737C2026.84 513.679 2059.83 541.417 2019.2 572.15C1939.06 600.864 1859.54 637.771 1831.49 684.392Z"
      stroke="black" stroke-width="2.25" stroke-linecap="round" />
    <path opacity="0.65"
      d="M1739.69 744.717C1782.92 787.449 1861.6 828.659 1933.71 865.697C1970.41 899.824 1944.54 924.847 1865.38 937.342C1759.67 945.319 1654.99 944.426 1574.94 943.383C1532.55 959.238 1521.15 996.509 1526.36 1060.85C1545.05 1178.81 1477.68 1231.42 1387.4 1165.34C1313.39 1167.44 1233.85 1225.25 1154.71 1308.15C1073.93 1358.64 997.407 1336.4 927.693 1259.77C857.979 1202.37 798.39 1210.76 747.711 1269.7C695.331 1327.56 648.081 1327.38 601.29 1266.46C545.508 1181.77 481.194 1118.88 403.11 1100.62C310.716 1123.98 206.064 1156.38 98.3071 1169.52C1.72809 1154.1 -69.5249 1105.64 -99.7109 1038.73C-92.2589 963.806 -50.0849 894.412 4.48209 835.775C32.5621 785.926 18.7651 744.287 -44.8469 705.857C-143.856 670.391 -236.655 632.326 -279.882 589.594C-257.067 546.862 -174.555 501.482 -71.7659 456.366C24.3001 396.157 -42.3629 338.001 -85.5089 346.574C-71.9549 347.633 -15.6059 334.757 71.1451 294.176C175.014 225.047 281.934 141.966 380.592 74.1109C468.045 47.8626 541.944 72.4062 605.826 125.78C660.474 155.388 713.232 131.275 768.906 56.932C822.528 -18.4864 883.467 -35.566 953.181 21.8129C1022.9 98.4394 1098.06 129.355 1175.93 95.3611C1251.72 28.9625 1325.78 -4.51816 1391.96 24.676C1448.87 100.492 1489.78 181.984 1509.76 231.27C1515.13 222.118 1516.97 189.2 1589.14 251.229C1681.56 318.124 1790.72 389.405 1889.73 455.473C1953.13 517.039 1959.12 569.75 1906.79 616.206C1830.9 659.766 1762.51 701.985 1739.69 744.717Z"
      stroke="black" stroke-width="2.25" stroke-linecap="round" />
    <path opacity="0.62"
      d="M1647.89 682.621C1684.83 721.464 1753.16 751.982 1821.83 774.242C1869.08 796.552 1867.59 811.744 1817.32 823.065C1733.64 840.674 1633.88 864.059 1539.94 900.734C1467.07 953.859 1420.09 1021.66 1395.31 1094.88C1392.42 1173.43 1375.35 1134.9 1332.18 1098.31C1292.35 1129.5 1241.51 1198.62 1183.76 1270.56C1123.9 1303.41 1061.13 1274.38 997.758 1203.52C934.389 1148.79 873.423 1147.06 813.753 1192.99C751.977 1252.75 687.528 1276.58 617.544 1247.03C541.242 1178.77 456.138 1102.69 363.258 1049.15C268.947 1032.52 176.553 1044.87 97.092 1066.53C24.732 1084.9 66.9329 988.366 125.604 902.19C129.438 841.385 94.851 785.281 23.139 735.482C-69.9301 686.891 -151.119 643.299 -188.055 604.456C-169.992 565.613 -99.819 533.357 -6.23704 508.681C102.6 477.931 96.309 451.004 43.74 429.655C25.569 394.784 39.8249 341.079 85.1039 270.758C153.738 198.17 239.868 139.781 332.154 115.949C426.573 129.04 515.727 170.283 596.97 210.069C673.056 211.145 742.824 165.202 808.434 90.4623C871.965 29.5252 934.983 23.3851 998.379 78.116C1061.75 148.983 1122.47 185.89 1178.44 168.016C1255.12 87.566 1347.81 143.819 1358.69 252.95C1366.5 303.709 1451.55 270.775 1566.16 271.503C1664.9 294.706 1761.35 335.303 1833.14 385.003C1866.65 440.991 1850.9 496.483 1792.45 547.424C1723.3 598.415 1665.98 643.745 1647.89 682.605C1647.89 682.616 1647.89 682.621 1647.89 682.621Z"
      stroke="black" stroke-width="2.25" stroke-linecap="round" />
    <path opacity="0.85"
      d="M1556.04 589.792C1586.87 624.746 1644.7 655.777 1707.43 684.26C1759.99 714.679 1777.63 746.405 1755.03 783.047C1699.57 826.358 1618.62 878.441 1528.58 938.699C1442.64 1000.07 1370.11 1058.01 1314.93 1100.86C1267.78 1117.94 1224.58 1045.5 1197.77 1051.9C1176.77 1103.29 1145.72 1172.67 1105.14 1228.82C1063.58 1245.39 1013.88 1211.76 956.853 1147.06C899.802 1095.61 838.134 1085.48 772.119 1117.49C705.132 1172.09 632.421 1210.63 554.607 1210.52C476.199 1171.39 394.983 1105.77 315.792 1038.08C172.233 976.533 203.931 979.429 232.47 941.215C213.273 904.689 163.188 863.397 88.5871 821.923C3.86107 779.042 -65.5019 739.206 -96.3359 704.252C-82.2959 669.282 -23.8949 640.849 58.5901 617.795C139.914 593.318 203.121 571.025 237.492 546.961C237.762 515.648 216.81 475.961 188.649 424.921C158.517 365.738 145.449 301.276 154.656 241.878C182.142 199.61 231.147 183.49 294.786 198.203C368.361 229.466 446.715 263.741 524.286 277.262C602.667 251.742 676.755 193.321 745.119 125.217C812.862 79.7213 875.583 82.7334 932.607 134.187C1013.98 219.238 1132.16 169.158 1167.45 118.647C1188.76 129.289 1204.33 177.764 1218.64 245.023C1242.92 311.09 1275.8 359.267 1323.08 384.655C1388.64 387.634 1469.34 379.889 1558.84 372.408C1682.45 368.767 1752.11 428.678 1677.43 480.132C1616.92 517.585 1570.08 554.822 1556.04 589.792Z"
      stroke="black" stroke-width="2.25" stroke-linecap="round" />
    <path opacity="0.12"
      d="M1464.26 603.926C1489.83 635.007 1537.62 669.812 1592.54 708.39C1645.3 747.845 1675.21 792.199 1675.16 840.889C1648.08 889.314 1593.76 938.683 1522.07 983.699C1442.56 1018.95 1363.45 1040.27 1291.68 1042.77C1205.6 1019.68 1096.09 979.33 1055.21 1025.29C1016.98 1114.43 911.358 1167.14 839.403 1090.96C788.697 1043.36 732.24 1026.81 671.382 1045.15C611.01 1089.3 547.425 1132.38 483.489 1153.58C422.982 1145.67 366.525 1106.73 319.005 1049.68C281.313 988.283 258.336 935.853 253.071 899.161C297.675 879.103 255.285 857.505 153.576 825.828C79.11 801.202 21.033 772.703 -4.50903 741.639C5.53497 710.558 52.407 678.351 122.499 644.374C197.802 608.974 265.788 569.386 315.576 524.519C339.606 477.004 342.576 424.756 331.587 371.283C290.682 285.057 383.562 333.35 463.941 324.016C523.638 280.043 584.523 219.271 643.383 163.117C702.999 132.781 758.97 143.042 809.649 190.639C881.901 269.964 991.845 253.232 1035.69 195.704C1068.01 178.906 1101.79 193.999 1140.78 235.838C1189.57 293.63 1248.02 354.153 1316.79 406.12C1393.25 444.367 1473.55 467.67 1549.53 480.314C1635.69 492.892 1492.67 559.903 1464.26 603.909C1464.26 603.921 1464.26 603.926 1464.26 603.926Z"
      stroke="black" stroke-width="2.25" stroke-linecap="round" />
    <path opacity="0.38"
      d="M1372.46 703.805C1436.83 758.189 1531.93 826.722 1577.45 893.816C1550.91 944.343 1443.64 961.803 1307.88 934.761C1175.77 911.442 1067.2 926.254 979.479 1011.52C906.687 1111.32 830.736 1125.71 742.014 1034.67C653.292 973.206 560.196 1011.5 479.223 1076.97C413.181 1085.99 383.265 1006.82 399.087 904.607C418.554 825.663 431.73 785.463 393.255 760.042C282.69 746.256 151.632 715.374 87.2642 660.99C127.062 606.607 252.315 533.87 376.542 453.404C441.072 362.23 419.175 389.239 485.136 351.108C555.768 245.767 643.275 185.426 731.997 246.893C820.719 337.934 902.259 345.564 985.392 285.653C1082.81 240.24 1202.07 283.121 1338.93 377.721C1468.64 476.028 1557.77 543.452 1560.74 587.161C1501.55 614.336 1412.26 649.422 1372.46 703.805Z"
      stroke="black" stroke-width="2.25" stroke-linecap="round" />
    <path opacity="0.15"
      d="M1280.69 741.821C1369.9 807.309 1450.52 852.242 1328.56 831.356C1214.03 849.247 1099.55 909.787 999.432 1001.16C905.796 1069.56 821.61 1060.38 745.578 978.436C639.171 925.857 536.868 1019.05 549.612 938.666C545.157 851.018 517.968 773.977 448.524 716.135C338.364 670.308 229.041 628.437 179.091 581.832C207.117 535.21 307.287 488.258 423.468 453.288C532.953 432.485 567.297 455.754 597.807 365.027C630.558 276.385 687.501 243.765 763.533 303.179C839.592 385.118 927.558 413.204 1026.59 378.995C1129.87 321.782 1244.54 310.677 1352.24 353.889C1434.51 430.614 1469.34 513.878 1438.53 583.09C1378.08 644.126 1308.72 695.183 1280.69 741.804C1280.69 741.815 1280.69 741.821 1280.69 741.821Z"
      stroke="black" stroke-width="2.25" stroke-linecap="round" />
    <path opacity="0.56"
      d="M1188.89 661.702C1255.74 711.534 1368.77 749.136 1316.98 783.129C1246.67 837.546 1160.46 913.03 1075.49 983.682C988.632 1018.04 910.467 993.033 847.098 922.166C762.453 864.208 686.961 952.221 667.872 942.489C632.016 895.372 573.912 832.035 491.481 771.495C393.363 710.955 307.827 660.146 270.891 621.304C288.954 582.461 363.636 559.241 461.457 552.472C552.96 545.687 624.915 548.401 673.974 544.611C698.814 513.083 718.983 452.576 747.279 375.337C772.038 314.036 814.833 304.719 878.202 359.449C941.571 430.3 1019.49 471.079 1104.57 465.204C1225.48 405.889 1354.75 432.468 1307.34 511.544C1255.96 570.793 1206.95 622.843 1188.89 661.686C1188.89 661.697 1188.89 661.702 1188.89 661.702Z"
      stroke="black" stroke-width="2.25" stroke-linecap="round" />
    <path opacity="0.24"
      d="M1097.09 581.997C1122.66 613.078 1163.78 640.452 1204.36 667.793C1244.54 700.826 1260.39 743.062 1250.21 796.8C1225.39 855.9 1181.2 913.676 1128.19 950.367C1070.79 956.342 1013.34 924.053 962.631 865.879C892.35 808.352 789.993 854.576 730.917 881.403C674.649 880.261 604.989 858.846 527.661 826.855C449.928 789.501 388.26 752.049 362.691 720.968C372.789 689.903 423.495 668.124 496.773 651.64C575.829 629.761 652.104 602.685 716.823 563.097C768.555 510.253 812.052 447.843 852.66 392.599C888.516 360.84 930.366 368.122 981.072 415.719C1031.78 473.893 1086.51 518.776 1138.54 535.575C1215.11 488.937 1122.25 534.995 1097.09 581.997Z"
      stroke="black" stroke-width="2.25" stroke-linecap="round" />
    <path opacity="0.62"
      d="M1005.29 620.675C1055.24 667.279 1113.34 743.889 1129.09 829.867C1126.71 892.393 1072.52 891.565 996.489 809.626C920.43 750.212 836.919 751.486 739.584 772.372C624.186 797.611 504.441 779.968 454.491 733.364C482.517 686.742 593.19 619.963 711.342 533.638C818.694 451.649 910.98 412.591 987.039 472.006C1085.8 573.242 1057.83 570.147 1005.29 620.675Z"
      stroke="black" stroke-width="2.25" stroke-linecap="round" />
    <path
      d="M913.491 720.455C993.492 782.616 1022.06 851.2 920.673 753.339C819.261 692.485 626.292 702.266 546.291 640.104C599.454 577.959 789.777 467.405 891.189 528.259C992.574 626.12 966.654 658.309 913.491 720.455Z"
      stroke="black" stroke-width="2.25" stroke-linecap="round" />
  </g>
  <defs>
    <clipPath id="clip0_32_54">
      <rect width="1728" height="1324" fill="white" />
    </clipPath>
  </defs>
</svg>
