<svg xmlns="http://www.w3.org/2000/svg" version="1.1" xmlns:xlink="http://www.w3.org/1999/xlink"
  xmlns:svgjs="http://svgjs.dev/svgjs" viewBox="0 0 640 800">
  <defs>
    <linearGradient x1="50%" y1="0%" x2="50%" y2="100%" id="ssscribble-grad">
      <stop stop-color="hsl(206, 75%, 49%)" stop-opacity="1" offset="0%"></stop>
      <stop stop-color="hsl(331, 90%, 56%)" stop-opacity="1" offset="100%"></stop>
    </linearGradient>
  </defs>
  <g fill="none" stroke-width="2.25" stroke="hsl(0, 0%, 0%)" stroke-linecap="round">
    <path
      d="M678.33 413.53C696.82 441.7 729.67 474.39 756.55 510.16 764.27 544.72 744.26 579.19 705.16 608.7 644.8 635.49 611.5 629.43 622.08 639.11 625.48 674.63 617.29 727.39 597.92 777.78 570.39 802.22 536.34 789.79 499.99 754.91 461.91 737.23 425.19 758.96 391.17 811.47 357.41 852.72 326.28 844.7 298.11 795.19 269.94 759.29 246.07 771.35 226.72 813.5 207.62 842.46 193.1 823.97 182.37 771.74 169.91 722.93 157.57 705.89 141.68 719.19 117.65 745.05 85.4 753.9 45.08 735.3 1.28 694.07 -39.49 642.81 -67.6 595.72 -78.34 558.67 -69.24 534.05 -46.7 516.99 -28.24 506.44 -24.27 494.72 -42.85 478.42 -80.61 462.29 -119.16 440.18 -137.66 412.02 -127.27 383.85 -92.11 350.96 -51.56 313.97 -25.65 277.15 -21.83 237.64 -35.72 199.37 -65.44 156.73 -28.02 148.57 33.71 158.3 76.39 139.99 112.8 97.75 141.37 42.56 161.83 -0.05 177.59 -8.28 192.16 19.86 204.2 51.45 219.12 53.92 238.16 14.1 257.2 -38.91 280.8 -56.7 308.97 -20.8 337.13 28.7 368.53 42.45 402.61 12.07 436.69 -29.56 473.02 -35.28 509.79 3.04 544.03 58.56 574.66 96.25 597.6 101.14 614.46 70.4 602.59 109.57 608.41 181.18 633.63 227.7 672.67 264.01 716.15 291.08 750.68 310.38 762.9 327.14 747.85 345.71 718.17 363.06 688.72 385.36 678.33 413.53Q678.33 413.53 678.33 413.53"
      opacity="0.51"></path>
    <path
      d="M644.33 449.98C660.34 475.8 689.48 500.7 716.19 523.08 729.78 543.7 720.2 558.82 690.88 566.37 651.73 571.19 612.96 570.65 583.31 570.02 567.61 579.6 563.39 602.12 565.32 641 572.24 712.27 547.29 744.06 513.85 704.13 486.44 705.4 456.98 740.33 427.67 790.42 397.75 820.93 369.41 807.49 343.59 761.19 317.77 726.51 295.7 731.58 276.93 767.19 257.53 802.15 240.03 802.04 222.7 765.23 202.04 714.06 178.22 676.06 149.3 665.03 115.08 679.14 76.32 698.72 36.41 706.66 0.64 697.34 -25.75 668.06 -36.93 627.63 -34.17 582.36 -18.55 540.43 1.66 505 12.06 474.88 6.95 449.72 -16.61 426.5 -53.28 405.07 -87.65 382.07 -103.66 356.25 -95.21 330.43 -64.65 303.01 -26.58 275.75 9 239.37 -15.69 204.23 -31.67 209.41 -26.65 210.05 -5.78 202.27 26.35 177.75 64.82 135.98 104.42 85.78 140.96 44.78 173.35 28.92 200.72 43.75 224.38 76 244.62 93.89 264.16 79.32 284.78 34.4 304.64 -11.17 327.21 -21.49 353.03 13.18 378.85 59.48 406.69 78.16 435.53 57.62 463.6 17.5 491.03 -2.73 515.54 14.91 536.62 60.72 551.77 109.96 559.17 139.74 561.16 134.21 561.84 114.32 588.57 151.8 622.8 192.22 663.23 235.29 699.9 275.21 723.38 312.41 725.6 344.26 706.22 372.33 678.11 398.65 652.78 424.16 644.33 449.98Q644.33 449.98 644.33 449.98"
      opacity="0.65"></path>
    <path
      d="M610.33 412.46C624.01 435.93 649.32 454.37 674.75 467.82 692.25 481.3 691.7 490.48 673.08 497.32 642.09 507.96 605.14 522.09 570.35 544.25 543.36 576.35 525.96 617.32 516.78 661.56 515.71 709.02 509.39 685.74 493.4 663.63 478.65 682.48 459.82 724.24 438.43 767.71 416.26 787.56 393.01 770.02 369.54 727.2 346.07 694.13 323.49 693.09 301.39 720.84 278.51 756.95 254.64 771.35 228.72 753.49 200.46 712.25 168.94 666.28 134.54 633.93 99.61 623.88 65.39 631.34 35.96 644.43 9.16 655.53 24.79 597.2 46.52 545.13 47.94 508.39 35.13 474.49 8.57 444.4 -25.9 415.04 -55.97 388.7 -69.65 365.23 -62.96 341.76 -36.97 322.27 -2.31 307.36 38 288.78 35.67 272.51 16.2 259.61 9.47 238.54 14.75 206.09 31.52 163.6 56.94 119.74 88.84 84.46 123.02 70.06 157.99 77.97 191.01 102.89 221.1 126.93 249.28 127.58 275.12 99.82 299.42 54.66 322.95 17.84 346.29 14.13 369.77 47.2 393.24 90.02 415.73 112.32 436.46 101.52 464.86 52.91 499.19 86.9 503.22 152.84 506.11 183.51 537.61 163.61 580.06 164.05 616.63 178.07 652.35 202.6 678.94 232.63 691.35 266.46 685.52 299.99 663.87 330.77 638.26 361.58 617.03 388.97 610.33 412.45Q610.33 412.46 610.33 412.46"
      opacity="0.62"></path>
    <path
      d="M576.31 356.37C587.73 377.49 609.15 396.24 632.38 413.45 651.85 431.83 658.38 451 650.01 473.14 629.47 499.31 599.49 530.78 566.14 567.19 534.31 604.27 507.45 639.28 487.01 665.17 469.55 675.49 453.55 631.72 443.62 635.59 435.84 666.64 424.34 708.56 409.31 742.49 393.92 752.5 375.51 732.18 354.39 693.09 333.26 662 310.42 655.88 285.97 675.22 261.16 708.21 234.23 731.5 205.41 731.43 176.37 707.79 146.29 668.14 116.96 627.24 63.79 590.05 75.53 591.8 86.1 568.71 78.99 546.64 60.44 521.69 32.81 496.63 1.43 470.72 -24.26 446.65 -35.68 425.53 -30.48 404.4 -8.85 387.22 21.7 373.29 51.82 358.5 75.23 345.03 87.96 330.49 88.06 311.57 80.3 287.59 69.87 256.75 58.71 220.99 53.87 182.04 57.28 146.15 67.46 120.61 85.61 110.87 109.18 119.76 136.43 138.65 165.45 159.36 194.18 167.53 223.21 152.11 250.65 116.81 275.97 75.66 301.06 48.17 324.29 49.99 345.41 81.08 375.55 132.47 419.32 102.21 432.39 71.69 440.28 78.12 446.05 107.41 451.35 148.05 460.34 187.97 472.52 217.08 490.03 232.42 514.31 234.22 544.2 229.54 577.35 225.02 623.13 222.82 648.93 259.02 621.27 290.11 598.86 312.74 581.51 335.24 576.31 356.37Q576.31 356.37 576.31 356.37"
      opacity="0.85"></path>
    <path
      d="M542.32 364.91C551.79 383.69 569.49 404.72 589.83 428.03 609.37 451.87 620.45 478.67 620.43 508.09 610.4 537.35 590.28 567.18 563.73 594.38 534.28 615.68 504.98 628.56 478.4 630.07 446.52 616.12 405.96 591.74 390.82 619.51 376.66 673.37 337.54 705.22 310.89 659.19 292.11 630.43 271.2 620.43 248.66 631.51 226.3 658.19 202.75 684.22 179.07 697.03 156.66 692.25 135.75 668.72 118.15 634.25 104.19 597.15 95.68 565.47 93.73 543.3 110.25 531.18 94.55 518.13 56.88 498.99 29.3 484.11 7.79 466.89 -1.67 448.12 2.05 429.34 19.41 409.88 45.37 389.35 73.26 367.96 98.44 344.04 116.88 316.93 125.78 288.22 126.88 256.65 122.81 224.34 107.66 172.24 142.06 201.42 171.83 195.78 193.94 169.21 216.49 132.49 238.29 98.56 260.37 80.23 281.1 86.43 299.87 115.19 326.63 163.12 367.35 153.01 383.59 118.25 395.56 108.1 408.07 117.22 422.51 142.5 440.58 177.42 462.23 213.99 487.7 245.39 516.02 268.5 545.76 282.58 573.9 290.22 605.81 297.82 552.84 338.31 542.32 364.9Q542.32 364.91 542.32 364.91"
      opacity="0.12"></path>
    <path
      d="M508.32 425.26C532.16 458.12 567.38 499.53 584.24 540.07 574.41 570.6 534.68 581.15 484.4 564.81 435.47 550.72 395.26 559.67 362.77 611.19 335.81 671.49 307.68 680.19 274.82 625.18 241.96 588.04 207.48 611.18 177.49 650.74 153.03 656.19 141.95 608.35 147.81 546.59 155.02 498.89 159.9 474.6 145.65 459.24 104.7 450.91 56.16 432.25 32.32 399.39 47.06 366.53 93.45 322.58 139.46 273.96 163.36 218.87 155.25 235.19 179.68 212.15 205.84 148.5 238.25 112.04 271.11 149.18 303.97 204.19 334.17 208.8 364.96 172.6 401.04 145.16 445.21 171.07 495.9 228.23 543.94 287.63 576.95 328.37 578.05 354.78 556.13 371.2 523.06 392.4 508.32 425.26Q508.32 425.26 508.32 425.26"
      opacity="0.38"></path>
    <path
      d="M474.33 448.23C507.37 487.8 537.23 514.95 492.06 502.33 449.64 513.14 407.24 549.72 370.16 604.93 335.48 646.26 304.3 640.71 276.14 591.2 236.73 559.43 198.84 615.74 203.56 567.17 201.91 514.21 191.84 467.66 166.12 432.71 125.32 405.02 84.83 379.72 66.33 351.56 76.71 323.39 113.81 295.02 156.84 273.89 197.39 261.32 210.11 275.38 221.41 220.56 233.54 167 254.63 147.29 282.79 183.19 310.96 232.7 343.54 249.67 380.22 229 418.47 194.43 460.94 187.72 500.83 213.83 531.3 260.19 544.2 310.5 532.79 352.32 510.4 389.2 484.71 420.05 474.33 448.22Q474.33 448.23 474.33 448.23"
      opacity="0.15"></path>
    <path
      d="M440.33 399.82C465.09 429.93 506.95 452.65 487.77 473.19 461.73 506.07 429.8 551.68 398.33 594.37 366.16 615.13 337.21 600.02 313.74 557.2 282.39 522.18 254.43 575.36 247.36 569.48 234.08 541.01 212.56 502.74 182.03 466.16 145.69 429.58 114.01 398.88 100.33 375.41 107.02 351.94 134.68 337.91 170.91 333.82 204.8 329.72 231.45 331.36 249.62 329.07 258.82 310.02 266.29 273.46 276.77 226.79 285.94 189.75 301.79 184.12 325.26 217.19 348.73 260 377.59 284.64 409.1 281.09 453.88 245.25 501.76 261.31 484.2 309.09 465.17 344.89 447.02 376.34 440.33 399.81Q440.33 399.82 440.33 399.82"
      opacity="0.56"></path>
    <path
      d="M406.33 351.66C415.8 370.44 431.03 386.98 446.06 403.5 460.94 423.46 466.81 448.98 463.04 481.45 453.85 517.16 437.48 552.07 417.85 574.24 396.59 577.85 375.31 558.34 356.53 523.19 330.5 488.43 292.59 516.36 270.71 532.57 249.87 531.88 224.07 518.94 195.43 499.61 166.64 477.04 143.8 454.41 134.33 435.63 138.07 416.86 156.85 403.7 183.99 393.74 213.27 380.52 241.52 364.16 265.49 340.24 284.65 308.31 300.76 270.6 315.8 237.22 329.08 218.03 344.58 222.43 363.36 251.19 382.14 286.34 402.41 313.46 421.68 323.61 450.04 295.43 415.65 323.26 406.33 351.66Q406.33 351.66 406.33 351.66"
      opacity="0.24"></path>
    <path
      d="M372.33 375.03C390.83 403.19 412.35 449.48 418.18 501.43 417.3 539.21 397.23 538.71 369.07 489.2 340.9 453.3 309.97 454.07 273.92 466.69 231.18 481.94 186.83 471.28 168.33 443.12 178.71 414.95 219.7 374.6 263.46 322.44 303.22 272.9 337.4 249.3 365.57 285.2 402.15 346.37 391.79 344.5 372.33 375.03Q372.33 375.03 372.33 375.03"
      opacity="0.62"></path>
    <path
      d="M338.33 435.32C367.96 472.88 378.54 514.32 340.99 455.19 303.43 418.42 231.96 424.33 202.33 386.77 222.02 349.22 292.51 282.42 330.07 319.19 367.62 378.32 358.02 397.77 338.33 435.32Q338.33 435.32 338.33 435.32"
      opacity="1.00"></path>
  </g>
</svg>
