<svg xmlns="http://www.w3.org/2000/svg" version="1.1" xmlns:xlink="http://www.w3.org/1999/xlink"
  xmlns:svgjs="http://svgjs.dev/svgjs" viewBox="0 0 2400 800" opacity="1">
  <g fill="#E15554" transform="matrix(1,0,0,1,11.412353515625,123)">
    <path
      d="M-10,10C9.94047619047619,9.375,47.916666666666664,8.25,85.71428571428571,7C123.51190476190476,5.75,135.71428571428572,4,171.42857142857142,4C207.1428571428571,4,221.4285714285714,6.791666666666667,257.1428571428571,7C292.85714285714283,7.208333333333333,307.1428571428571,4.375,342.85714285714283,5C378.57142857142856,5.625,392.85714285714283,9.166666666666666,428.57142857142856,10C464.2857142857143,10.833333333333334,478.5714285714285,6.916666666666666,514.2857142857142,9C549.9999999999999,11.083333333333334,564.2857142857143,20.416666666666668,600,20C635.7142857142857,19.583333333333332,650,7,685.7142857142857,7C721.4285714285713,7,735.7142857142857,16.875,771.4285714285713,20C807.142857142857,23.125,821.4285714285714,21.166666666666668,857.1428571428571,22C892.8571428571428,22.833333333333332,907.1428571428571,24,942.8571428571428,24C978.5714285714284,24,992.8571428571428,21.166666666666668,1028.5714285714284,22C1064.2857142857142,22.833333333333332,1078.5714285714284,27.791666666666668,1114.2857142857142,28C1150,28.208333333333332,1164.2857142857142,22.166666666666668,1200,23C1235.7142857142858,23.833333333333332,1249.9999999999998,31.791666666666668,1285.7142857142856,32C1321.4285714285713,32.208333333333336,1335.7142857142856,24,1371.4285714285713,24C1407.142857142857,24,1421.4285714285713,29.291666666666668,1457.142857142857,32C1492.857142857143,34.708333333333336,1507.1428571428569,35.75,1542.8571428571427,37C1578.5714285714284,38.25,1592.8571428571427,37.583333333333336,1628.5714285714284,38C1664.2857142857142,38.416666666666664,1678.5714285714284,37.958333333333336,1714.2857142857142,39C1750,40.041666666666664,1764.285714285714,43,1799.9999999999998,43C1835.7142857142856,43,1849.9999999999998,36.916666666666664,1885.7142857142856,39C1921.4285714285713,41.083333333333336,1935.7142857142856,52.375,1971.4285714285713,53C2007.142857142857,53.625,2021.428571428571,41.375,2057.142857142857,42C2092.8571428571427,42.625,2107.142857142857,54.333333333333336,2142.8571428571427,56C2178.5714285714284,57.666666666666664,2192.8571428571427,49.375,2228.5714285714284,50C2264.285714285714,50.625,2278.5714285714284,58.791666666666664,2314.285714285714,59C2350,59.208333333333336,2330.059523809524,-20.04166666666667,2400,51C2469.940476190476,122.04166666666667,3254.1666666666665,223.125,2650,400C2045.8333333333335,576.875,156.25,795.8333333333334,-500,900"
      transform="matrix(1,0,0,1,0,25)" opacity="0.05"></path>
    <path
      d="M-10,10C9.94047619047619,9.375,47.916666666666664,8.25,85.71428571428571,7C123.51190476190476,5.75,135.71428571428572,4,171.42857142857142,4C207.1428571428571,4,221.4285714285714,6.791666666666667,257.1428571428571,7C292.85714285714283,7.208333333333333,307.1428571428571,4.375,342.85714285714283,5C378.57142857142856,5.625,392.85714285714283,9.166666666666666,428.57142857142856,10C464.2857142857143,10.833333333333334,478.5714285714285,6.916666666666666,514.2857142857142,9C549.9999999999999,11.083333333333334,564.2857142857143,20.416666666666668,600,20C635.7142857142857,19.583333333333332,650,7,685.7142857142857,7C721.4285714285713,7,735.7142857142857,16.875,771.4285714285713,20C807.142857142857,23.125,821.4285714285714,21.166666666666668,857.1428571428571,22C892.8571428571428,22.833333333333332,907.1428571428571,24,942.8571428571428,24C978.5714285714284,24,992.8571428571428,21.166666666666668,1028.5714285714284,22C1064.2857142857142,22.833333333333332,1078.5714285714284,27.791666666666668,1114.2857142857142,28C1150,28.208333333333332,1164.2857142857142,22.166666666666668,1200,23C1235.7142857142858,23.833333333333332,1249.9999999999998,31.791666666666668,1285.7142857142856,32C1321.4285714285713,32.208333333333336,1335.7142857142856,24,1371.4285714285713,24C1407.142857142857,24,1421.4285714285713,29.291666666666668,1457.142857142857,32C1492.857142857143,34.708333333333336,1507.1428571428569,35.75,1542.8571428571427,37C1578.5714285714284,38.25,1592.8571428571427,37.583333333333336,1628.5714285714284,38C1664.2857142857142,38.416666666666664,1678.5714285714284,37.958333333333336,1714.2857142857142,39C1750,40.041666666666664,1764.285714285714,43,1799.9999999999998,43C1835.7142857142856,43,1849.9999999999998,36.916666666666664,1885.7142857142856,39C1921.4285714285713,41.083333333333336,1935.7142857142856,52.375,1971.4285714285713,53C2007.142857142857,53.625,2021.428571428571,41.375,2057.142857142857,42C2092.8571428571427,42.625,2107.142857142857,54.333333333333336,2142.8571428571427,56C2178.5714285714284,57.666666666666664,2192.8571428571427,49.375,2228.5714285714284,50C2264.285714285714,50.625,2278.5714285714284,58.791666666666664,2314.285714285714,59C2350,59.208333333333336,2330.059523809524,-20.04166666666667,2400,51C2469.940476190476,122.04166666666667,3254.1666666666665,223.125,2650,400C2045.8333333333335,576.875,156.25,795.8333333333334,-500,900"
      transform="matrix(1,0,0,1,0,50)" opacity="0.11"></path>
    <path
      d="M-10,10C9.94047619047619,9.375,47.916666666666664,8.25,85.71428571428571,7C123.51190476190476,5.75,135.71428571428572,4,171.42857142857142,4C207.1428571428571,4,221.4285714285714,6.791666666666667,257.1428571428571,7C292.85714285714283,7.208333333333333,307.1428571428571,4.375,342.85714285714283,5C378.57142857142856,5.625,392.85714285714283,9.166666666666666,428.57142857142856,10C464.2857142857143,10.833333333333334,478.5714285714285,6.916666666666666,514.2857142857142,9C549.9999999999999,11.083333333333334,564.2857142857143,20.416666666666668,600,20C635.7142857142857,19.583333333333332,650,7,685.7142857142857,7C721.4285714285713,7,735.7142857142857,16.875,771.4285714285713,20C807.142857142857,23.125,821.4285714285714,21.166666666666668,857.1428571428571,22C892.8571428571428,22.833333333333332,907.1428571428571,24,942.8571428571428,24C978.5714285714284,24,992.8571428571428,21.166666666666668,1028.5714285714284,22C1064.2857142857142,22.833333333333332,1078.5714285714284,27.791666666666668,1114.2857142857142,28C1150,28.208333333333332,1164.2857142857142,22.166666666666668,1200,23C1235.7142857142858,23.833333333333332,1249.9999999999998,31.791666666666668,1285.7142857142856,32C1321.4285714285713,32.208333333333336,1335.7142857142856,24,1371.4285714285713,24C1407.142857142857,24,1421.4285714285713,29.291666666666668,1457.142857142857,32C1492.857142857143,34.708333333333336,1507.1428571428569,35.75,1542.8571428571427,37C1578.5714285714284,38.25,1592.8571428571427,37.583333333333336,1628.5714285714284,38C1664.2857142857142,38.416666666666664,1678.5714285714284,37.958333333333336,1714.2857142857142,39C1750,40.041666666666664,1764.285714285714,43,1799.9999999999998,43C1835.7142857142856,43,1849.9999999999998,36.916666666666664,1885.7142857142856,39C1921.4285714285713,41.083333333333336,1935.7142857142856,52.375,1971.4285714285713,53C2007.142857142857,53.625,2021.428571428571,41.375,2057.142857142857,42C2092.8571428571427,42.625,2107.142857142857,54.333333333333336,2142.8571428571427,56C2178.5714285714284,57.666666666666664,2192.8571428571427,49.375,2228.5714285714284,50C2264.285714285714,50.625,2278.5714285714284,58.791666666666664,2314.285714285714,59C2350,59.208333333333336,2330.059523809524,-20.04166666666667,2400,51C2469.940476190476,122.04166666666667,3254.1666666666665,223.125,2650,400C2045.8333333333335,576.875,156.25,795.8333333333334,-500,900"
      transform="matrix(1,0,0,1,0,75)" opacity="0.17"></path>
    <path
      d="M-10,10C9.94047619047619,9.375,47.916666666666664,8.25,85.71428571428571,7C123.51190476190476,5.75,135.71428571428572,4,171.42857142857142,4C207.1428571428571,4,221.4285714285714,6.791666666666667,257.1428571428571,7C292.85714285714283,7.208333333333333,307.1428571428571,4.375,342.85714285714283,5C378.57142857142856,5.625,392.85714285714283,9.166666666666666,428.57142857142856,10C464.2857142857143,10.833333333333334,478.5714285714285,6.916666666666666,514.2857142857142,9C549.9999999999999,11.083333333333334,564.2857142857143,20.416666666666668,600,20C635.7142857142857,19.583333333333332,650,7,685.7142857142857,7C721.4285714285713,7,735.7142857142857,16.875,771.4285714285713,20C807.142857142857,23.125,821.4285714285714,21.166666666666668,857.1428571428571,22C892.8571428571428,22.833333333333332,907.1428571428571,24,942.8571428571428,24C978.5714285714284,24,992.8571428571428,21.166666666666668,1028.5714285714284,22C1064.2857142857142,22.833333333333332,1078.5714285714284,27.791666666666668,1114.2857142857142,28C1150,28.208333333333332,1164.2857142857142,22.166666666666668,1200,23C1235.7142857142858,23.833333333333332,1249.9999999999998,31.791666666666668,1285.7142857142856,32C1321.4285714285713,32.208333333333336,1335.7142857142856,24,1371.4285714285713,24C1407.142857142857,24,1421.4285714285713,29.291666666666668,1457.142857142857,32C1492.857142857143,34.708333333333336,1507.1428571428569,35.75,1542.8571428571427,37C1578.5714285714284,38.25,1592.8571428571427,37.583333333333336,1628.5714285714284,38C1664.2857142857142,38.416666666666664,1678.5714285714284,37.958333333333336,1714.2857142857142,39C1750,40.041666666666664,1764.285714285714,43,1799.9999999999998,43C1835.7142857142856,43,1849.9999999999998,36.916666666666664,1885.7142857142856,39C1921.4285714285713,41.083333333333336,1935.7142857142856,52.375,1971.4285714285713,53C2007.142857142857,53.625,2021.428571428571,41.375,2057.142857142857,42C2092.8571428571427,42.625,2107.142857142857,54.333333333333336,2142.8571428571427,56C2178.5714285714284,57.666666666666664,2192.8571428571427,49.375,2228.5714285714284,50C2264.285714285714,50.625,2278.5714285714284,58.791666666666664,2314.285714285714,59C2350,59.208333333333336,2330.059523809524,-20.04166666666667,2400,51C2469.940476190476,122.04166666666667,3254.1666666666665,223.125,2650,400C2045.8333333333335,576.875,156.25,795.8333333333334,-500,900"
      transform="matrix(1,0,0,1,0,100)" opacity="0.23"></path>
    <path
      d="M-10,10C9.94047619047619,9.375,47.916666666666664,8.25,85.71428571428571,7C123.51190476190476,5.75,135.71428571428572,4,171.42857142857142,4C207.1428571428571,4,221.4285714285714,6.791666666666667,257.1428571428571,7C292.85714285714283,7.208333333333333,307.1428571428571,4.375,342.85714285714283,5C378.57142857142856,5.625,392.85714285714283,9.166666666666666,428.57142857142856,10C464.2857142857143,10.833333333333334,478.5714285714285,6.916666666666666,514.2857142857142,9C549.9999999999999,11.083333333333334,564.2857142857143,20.416666666666668,600,20C635.7142857142857,19.583333333333332,650,7,685.7142857142857,7C721.4285714285713,7,735.7142857142857,16.875,771.4285714285713,20C807.142857142857,23.125,821.4285714285714,21.166666666666668,857.1428571428571,22C892.8571428571428,22.833333333333332,907.1428571428571,24,942.8571428571428,24C978.5714285714284,24,992.8571428571428,21.166666666666668,1028.5714285714284,22C1064.2857142857142,22.833333333333332,1078.5714285714284,27.791666666666668,1114.2857142857142,28C1150,28.208333333333332,1164.2857142857142,22.166666666666668,1200,23C1235.7142857142858,23.833333333333332,1249.9999999999998,31.791666666666668,1285.7142857142856,32C1321.4285714285713,32.208333333333336,1335.7142857142856,24,1371.4285714285713,24C1407.142857142857,24,1421.4285714285713,29.291666666666668,1457.142857142857,32C1492.857142857143,34.708333333333336,1507.1428571428569,35.75,1542.8571428571427,37C1578.5714285714284,38.25,1592.8571428571427,37.583333333333336,1628.5714285714284,38C1664.2857142857142,38.416666666666664,1678.5714285714284,37.958333333333336,1714.2857142857142,39C1750,40.041666666666664,1764.285714285714,43,1799.9999999999998,43C1835.7142857142856,43,1849.9999999999998,36.916666666666664,1885.7142857142856,39C1921.4285714285713,41.083333333333336,1935.7142857142856,52.375,1971.4285714285713,53C2007.142857142857,53.625,2021.428571428571,41.375,2057.142857142857,42C2092.8571428571427,42.625,2107.142857142857,54.333333333333336,2142.8571428571427,56C2178.5714285714284,57.666666666666664,2192.8571428571427,49.375,2228.5714285714284,50C2264.285714285714,50.625,2278.5714285714284,58.791666666666664,2314.285714285714,59C2350,59.208333333333336,2330.059523809524,-20.04166666666667,2400,51C2469.940476190476,122.04166666666667,3254.1666666666665,223.125,2650,400C2045.8333333333335,576.875,156.25,795.8333333333334,-500,900"
      transform="matrix(1,0,0,1,0,125)" opacity="0.29"></path>
    <path
      d="M-10,10C9.94047619047619,9.375,47.916666666666664,8.25,85.71428571428571,7C123.51190476190476,5.75,135.71428571428572,4,171.42857142857142,4C207.1428571428571,4,221.4285714285714,6.791666666666667,257.1428571428571,7C292.85714285714283,7.208333333333333,307.1428571428571,4.375,342.85714285714283,5C378.57142857142856,5.625,392.85714285714283,9.166666666666666,428.57142857142856,10C464.2857142857143,10.833333333333334,478.5714285714285,6.916666666666666,514.2857142857142,9C549.9999999999999,11.083333333333334,564.2857142857143,20.416666666666668,600,20C635.7142857142857,19.583333333333332,650,7,685.7142857142857,7C721.4285714285713,7,735.7142857142857,16.875,771.4285714285713,20C807.142857142857,23.125,821.4285714285714,21.166666666666668,857.1428571428571,22C892.8571428571428,22.833333333333332,907.1428571428571,24,942.8571428571428,24C978.5714285714284,24,992.8571428571428,21.166666666666668,1028.5714285714284,22C1064.2857142857142,22.833333333333332,1078.5714285714284,27.791666666666668,1114.2857142857142,28C1150,28.208333333333332,1164.2857142857142,22.166666666666668,1200,23C1235.7142857142858,23.833333333333332,1249.9999999999998,31.791666666666668,1285.7142857142856,32C1321.4285714285713,32.208333333333336,1335.7142857142856,24,1371.4285714285713,24C1407.142857142857,24,1421.4285714285713,29.291666666666668,1457.142857142857,32C1492.857142857143,34.708333333333336,1507.1428571428569,35.75,1542.8571428571427,37C1578.5714285714284,38.25,1592.8571428571427,37.583333333333336,1628.5714285714284,38C1664.2857142857142,38.416666666666664,1678.5714285714284,37.958333333333336,1714.2857142857142,39C1750,40.041666666666664,1764.285714285714,43,1799.9999999999998,43C1835.7142857142856,43,1849.9999999999998,36.916666666666664,1885.7142857142856,39C1921.4285714285713,41.083333333333336,1935.7142857142856,52.375,1971.4285714285713,53C2007.142857142857,53.625,2021.428571428571,41.375,2057.142857142857,42C2092.8571428571427,42.625,2107.142857142857,54.333333333333336,2142.8571428571427,56C2178.5714285714284,57.666666666666664,2192.8571428571427,49.375,2228.5714285714284,50C2264.285714285714,50.625,2278.5714285714284,58.791666666666664,2314.285714285714,59C2350,59.208333333333336,2330.059523809524,-20.04166666666667,2400,51C2469.940476190476,122.04166666666667,3254.1666666666665,223.125,2650,400C2045.8333333333335,576.875,156.25,795.8333333333334,-500,900"
      transform="matrix(1,0,0,1,0,150)" opacity="0.35"></path>
    <path
      d="M-10,10C9.94047619047619,9.375,47.916666666666664,8.25,85.71428571428571,7C123.51190476190476,5.75,135.71428571428572,4,171.42857142857142,4C207.1428571428571,4,221.4285714285714,6.791666666666667,257.1428571428571,7C292.85714285714283,7.208333333333333,307.1428571428571,4.375,342.85714285714283,5C378.57142857142856,5.625,392.85714285714283,9.166666666666666,428.57142857142856,10C464.2857142857143,10.833333333333334,478.5714285714285,6.916666666666666,514.2857142857142,9C549.9999999999999,11.083333333333334,564.2857142857143,20.416666666666668,600,20C635.7142857142857,19.583333333333332,650,7,685.7142857142857,7C721.4285714285713,7,735.7142857142857,16.875,771.4285714285713,20C807.142857142857,23.125,821.4285714285714,21.166666666666668,857.1428571428571,22C892.8571428571428,22.833333333333332,907.1428571428571,24,942.8571428571428,24C978.5714285714284,24,992.8571428571428,21.166666666666668,1028.5714285714284,22C1064.2857142857142,22.833333333333332,1078.5714285714284,27.791666666666668,1114.2857142857142,28C1150,28.208333333333332,1164.2857142857142,22.166666666666668,1200,23C1235.7142857142858,23.833333333333332,1249.9999999999998,31.791666666666668,1285.7142857142856,32C1321.4285714285713,32.208333333333336,1335.7142857142856,24,1371.4285714285713,24C1407.142857142857,24,1421.4285714285713,29.291666666666668,1457.142857142857,32C1492.857142857143,34.708333333333336,1507.1428571428569,35.75,1542.8571428571427,37C1578.5714285714284,38.25,1592.8571428571427,37.583333333333336,1628.5714285714284,38C1664.2857142857142,38.416666666666664,1678.5714285714284,37.958333333333336,1714.2857142857142,39C1750,40.041666666666664,1764.285714285714,43,1799.9999999999998,43C1835.7142857142856,43,1849.9999999999998,36.916666666666664,1885.7142857142856,39C1921.4285714285713,41.083333333333336,1935.7142857142856,52.375,1971.4285714285713,53C2007.142857142857,53.625,2021.428571428571,41.375,2057.142857142857,42C2092.8571428571427,42.625,2107.142857142857,54.333333333333336,2142.8571428571427,56C2178.5714285714284,57.666666666666664,2192.8571428571427,49.375,2228.5714285714284,50C2264.285714285714,50.625,2278.5714285714284,58.791666666666664,2314.285714285714,59C2350,59.208333333333336,2330.059523809524,-20.04166666666667,2400,51C2469.940476190476,122.04166666666667,3254.1666666666665,223.125,2650,400C2045.8333333333335,576.875,156.25,795.8333333333334,-500,900"
      transform="matrix(1,0,0,1,0,175)" opacity="0.41"></path>
    <path
      d="M-10,10C9.94047619047619,9.375,47.916666666666664,8.25,85.71428571428571,7C123.51190476190476,5.75,135.71428571428572,4,171.42857142857142,4C207.1428571428571,4,221.4285714285714,6.791666666666667,257.1428571428571,7C292.85714285714283,7.208333333333333,307.1428571428571,4.375,342.85714285714283,5C378.57142857142856,5.625,392.85714285714283,9.166666666666666,428.57142857142856,10C464.2857142857143,10.833333333333334,478.5714285714285,6.916666666666666,514.2857142857142,9C549.9999999999999,11.083333333333334,564.2857142857143,20.416666666666668,600,20C635.7142857142857,19.583333333333332,650,7,685.7142857142857,7C721.4285714285713,7,735.7142857142857,16.875,771.4285714285713,20C807.142857142857,23.125,821.4285714285714,21.166666666666668,857.1428571428571,22C892.8571428571428,22.833333333333332,907.1428571428571,24,942.8571428571428,24C978.5714285714284,24,992.8571428571428,21.166666666666668,1028.5714285714284,22C1064.2857142857142,22.833333333333332,1078.5714285714284,27.791666666666668,1114.2857142857142,28C1150,28.208333333333332,1164.2857142857142,22.166666666666668,1200,23C1235.7142857142858,23.833333333333332,1249.9999999999998,31.791666666666668,1285.7142857142856,32C1321.4285714285713,32.208333333333336,1335.7142857142856,24,1371.4285714285713,24C1407.142857142857,24,1421.4285714285713,29.291666666666668,1457.142857142857,32C1492.857142857143,34.708333333333336,1507.1428571428569,35.75,1542.8571428571427,37C1578.5714285714284,38.25,1592.8571428571427,37.583333333333336,1628.5714285714284,38C1664.2857142857142,38.416666666666664,1678.5714285714284,37.958333333333336,1714.2857142857142,39C1750,40.041666666666664,1764.285714285714,43,1799.9999999999998,43C1835.7142857142856,43,1849.9999999999998,36.916666666666664,1885.7142857142856,39C1921.4285714285713,41.083333333333336,1935.7142857142856,52.375,1971.4285714285713,53C2007.142857142857,53.625,2021.428571428571,41.375,2057.142857142857,42C2092.8571428571427,42.625,2107.142857142857,54.333333333333336,2142.8571428571427,56C2178.5714285714284,57.666666666666664,2192.8571428571427,49.375,2228.5714285714284,50C2264.285714285714,50.625,2278.5714285714284,58.791666666666664,2314.285714285714,59C2350,59.208333333333336,2330.059523809524,-20.04166666666667,2400,51C2469.940476190476,122.04166666666667,3254.1666666666665,223.125,2650,400C2045.8333333333335,576.875,156.25,795.8333333333334,-500,900"
      transform="matrix(1,0,0,1,0,200)" opacity="0.47"></path>
    <path
      d="M-10,10C9.94047619047619,9.375,47.916666666666664,8.25,85.71428571428571,7C123.51190476190476,5.75,135.71428571428572,4,171.42857142857142,4C207.1428571428571,4,221.4285714285714,6.791666666666667,257.1428571428571,7C292.85714285714283,7.208333333333333,307.1428571428571,4.375,342.85714285714283,5C378.57142857142856,5.625,392.85714285714283,9.166666666666666,428.57142857142856,10C464.2857142857143,10.833333333333334,478.5714285714285,6.916666666666666,514.2857142857142,9C549.9999999999999,11.083333333333334,564.2857142857143,20.416666666666668,600,20C635.7142857142857,19.583333333333332,650,7,685.7142857142857,7C721.4285714285713,7,735.7142857142857,16.875,771.4285714285713,20C807.142857142857,23.125,821.4285714285714,21.166666666666668,857.1428571428571,22C892.8571428571428,22.833333333333332,907.1428571428571,24,942.8571428571428,24C978.5714285714284,24,992.8571428571428,21.166666666666668,1028.5714285714284,22C1064.2857142857142,22.833333333333332,1078.5714285714284,27.791666666666668,1114.2857142857142,28C1150,28.208333333333332,1164.2857142857142,22.166666666666668,1200,23C1235.7142857142858,23.833333333333332,1249.9999999999998,31.791666666666668,1285.7142857142856,32C1321.4285714285713,32.208333333333336,1335.7142857142856,24,1371.4285714285713,24C1407.142857142857,24,1421.4285714285713,29.291666666666668,1457.142857142857,32C1492.857142857143,34.708333333333336,1507.1428571428569,35.75,1542.8571428571427,37C1578.5714285714284,38.25,1592.8571428571427,37.583333333333336,1628.5714285714284,38C1664.2857142857142,38.416666666666664,1678.5714285714284,37.958333333333336,1714.2857142857142,39C1750,40.041666666666664,1764.285714285714,43,1799.9999999999998,43C1835.7142857142856,43,1849.9999999999998,36.916666666666664,1885.7142857142856,39C1921.4285714285713,41.083333333333336,1935.7142857142856,52.375,1971.4285714285713,53C2007.142857142857,53.625,2021.428571428571,41.375,2057.142857142857,42C2092.8571428571427,42.625,2107.142857142857,54.333333333333336,2142.8571428571427,56C2178.5714285714284,57.666666666666664,2192.8571428571427,49.375,2228.5714285714284,50C2264.285714285714,50.625,2278.5714285714284,58.791666666666664,2314.285714285714,59C2350,59.208333333333336,2330.059523809524,-20.04166666666667,2400,51C2469.940476190476,122.04166666666667,3254.1666666666665,223.125,2650,400C2045.8333333333335,576.875,156.25,795.8333333333334,-500,900"
      transform="matrix(1,0,0,1,0,225)" opacity="0.53"></path>
    <path
      d="M-10,10C9.94047619047619,9.375,47.916666666666664,8.25,85.71428571428571,7C123.51190476190476,5.75,135.71428571428572,4,171.42857142857142,4C207.1428571428571,4,221.4285714285714,6.791666666666667,257.1428571428571,7C292.85714285714283,7.208333333333333,307.1428571428571,4.375,342.85714285714283,5C378.57142857142856,5.625,392.85714285714283,9.166666666666666,428.57142857142856,10C464.2857142857143,10.833333333333334,478.5714285714285,6.916666666666666,514.2857142857142,9C549.9999999999999,11.083333333333334,564.2857142857143,20.416666666666668,600,20C635.7142857142857,19.583333333333332,650,7,685.7142857142857,7C721.4285714285713,7,735.7142857142857,16.875,771.4285714285713,20C807.142857142857,23.125,821.4285714285714,21.166666666666668,857.1428571428571,22C892.8571428571428,22.833333333333332,907.1428571428571,24,942.8571428571428,24C978.5714285714284,24,992.8571428571428,21.166666666666668,1028.5714285714284,22C1064.2857142857142,22.833333333333332,1078.5714285714284,27.791666666666668,1114.2857142857142,28C1150,28.208333333333332,1164.2857142857142,22.166666666666668,1200,23C1235.7142857142858,23.833333333333332,1249.9999999999998,31.791666666666668,1285.7142857142856,32C1321.4285714285713,32.208333333333336,1335.7142857142856,24,1371.4285714285713,24C1407.142857142857,24,1421.4285714285713,29.291666666666668,1457.142857142857,32C1492.857142857143,34.708333333333336,1507.1428571428569,35.75,1542.8571428571427,37C1578.5714285714284,38.25,1592.8571428571427,37.583333333333336,1628.5714285714284,38C1664.2857142857142,38.416666666666664,1678.5714285714284,37.958333333333336,1714.2857142857142,39C1750,40.041666666666664,1764.285714285714,43,1799.9999999999998,43C1835.7142857142856,43,1849.9999999999998,36.916666666666664,1885.7142857142856,39C1921.4285714285713,41.083333333333336,1935.7142857142856,52.375,1971.4285714285713,53C2007.142857142857,53.625,2021.428571428571,41.375,2057.142857142857,42C2092.8571428571427,42.625,2107.142857142857,54.333333333333336,2142.8571428571427,56C2178.5714285714284,57.666666666666664,2192.8571428571427,49.375,2228.5714285714284,50C2264.285714285714,50.625,2278.5714285714284,58.791666666666664,2314.285714285714,59C2350,59.208333333333336,2330.059523809524,-20.04166666666667,2400,51C2469.940476190476,122.04166666666667,3254.1666666666665,223.125,2650,400C2045.8333333333335,576.875,156.25,795.8333333333334,-500,900"
      transform="matrix(1,0,0,1,0,250)" opacity="0.58"></path>
    <path
      d="M-10,10C9.94047619047619,9.375,47.916666666666664,8.25,85.71428571428571,7C123.51190476190476,5.75,135.71428571428572,4,171.42857142857142,4C207.1428571428571,4,221.4285714285714,6.791666666666667,257.1428571428571,7C292.85714285714283,7.208333333333333,307.1428571428571,4.375,342.85714285714283,5C378.57142857142856,5.625,392.85714285714283,9.166666666666666,428.57142857142856,10C464.2857142857143,10.833333333333334,478.5714285714285,6.916666666666666,514.2857142857142,9C549.9999999999999,11.083333333333334,564.2857142857143,20.416666666666668,600,20C635.7142857142857,19.583333333333332,650,7,685.7142857142857,7C721.4285714285713,7,735.7142857142857,16.875,771.4285714285713,20C807.142857142857,23.125,821.4285714285714,21.166666666666668,857.1428571428571,22C892.8571428571428,22.833333333333332,907.1428571428571,24,942.8571428571428,24C978.5714285714284,24,992.8571428571428,21.166666666666668,1028.5714285714284,22C1064.2857142857142,22.833333333333332,1078.5714285714284,27.791666666666668,1114.2857142857142,28C1150,28.208333333333332,1164.2857142857142,22.166666666666668,1200,23C1235.7142857142858,23.833333333333332,1249.9999999999998,31.791666666666668,1285.7142857142856,32C1321.4285714285713,32.208333333333336,1335.7142857142856,24,1371.4285714285713,24C1407.142857142857,24,1421.4285714285713,29.291666666666668,1457.142857142857,32C1492.857142857143,34.708333333333336,1507.1428571428569,35.75,1542.8571428571427,37C1578.5714285714284,38.25,1592.8571428571427,37.583333333333336,1628.5714285714284,38C1664.2857142857142,38.416666666666664,1678.5714285714284,37.958333333333336,1714.2857142857142,39C1750,40.041666666666664,1764.285714285714,43,1799.9999999999998,43C1835.7142857142856,43,1849.9999999999998,36.916666666666664,1885.7142857142856,39C1921.4285714285713,41.083333333333336,1935.7142857142856,52.375,1971.4285714285713,53C2007.142857142857,53.625,2021.428571428571,41.375,2057.142857142857,42C2092.8571428571427,42.625,2107.142857142857,54.333333333333336,2142.8571428571427,56C2178.5714285714284,57.666666666666664,2192.8571428571427,49.375,2228.5714285714284,50C2264.285714285714,50.625,2278.5714285714284,58.791666666666664,2314.285714285714,59C2350,59.208333333333336,2330.059523809524,-20.04166666666667,2400,51C2469.940476190476,122.04166666666667,3254.1666666666665,223.125,2650,400C2045.8333333333335,576.875,156.25,795.8333333333334,-500,900"
      transform="matrix(1,0,0,1,0,275)" opacity="0.64"></path>
    <path
      d="M-10,10C9.94047619047619,9.375,47.916666666666664,8.25,85.71428571428571,7C123.51190476190476,5.75,135.71428571428572,4,171.42857142857142,4C207.1428571428571,4,221.4285714285714,6.791666666666667,257.1428571428571,7C292.85714285714283,7.208333333333333,307.1428571428571,4.375,342.85714285714283,5C378.57142857142856,5.625,392.85714285714283,9.166666666666666,428.57142857142856,10C464.2857142857143,10.833333333333334,478.5714285714285,6.916666666666666,514.2857142857142,9C549.9999999999999,11.083333333333334,564.2857142857143,20.416666666666668,600,20C635.7142857142857,19.583333333333332,650,7,685.7142857142857,7C721.4285714285713,7,735.7142857142857,16.875,771.4285714285713,20C807.142857142857,23.125,821.4285714285714,21.166666666666668,857.1428571428571,22C892.8571428571428,22.833333333333332,907.1428571428571,24,942.8571428571428,24C978.5714285714284,24,992.8571428571428,21.166666666666668,1028.5714285714284,22C1064.2857142857142,22.833333333333332,1078.5714285714284,27.791666666666668,1114.2857142857142,28C1150,28.208333333333332,1164.2857142857142,22.166666666666668,1200,23C1235.7142857142858,23.833333333333332,1249.9999999999998,31.791666666666668,1285.7142857142856,32C1321.4285714285713,32.208333333333336,1335.7142857142856,24,1371.4285714285713,24C1407.142857142857,24,1421.4285714285713,29.291666666666668,1457.142857142857,32C1492.857142857143,34.708333333333336,1507.1428571428569,35.75,1542.8571428571427,37C1578.5714285714284,38.25,1592.8571428571427,37.583333333333336,1628.5714285714284,38C1664.2857142857142,38.416666666666664,1678.5714285714284,37.958333333333336,1714.2857142857142,39C1750,40.041666666666664,1764.285714285714,43,1799.9999999999998,43C1835.7142857142856,43,1849.9999999999998,36.916666666666664,1885.7142857142856,39C1921.4285714285713,41.083333333333336,1935.7142857142856,52.375,1971.4285714285713,53C2007.142857142857,53.625,2021.428571428571,41.375,2057.142857142857,42C2092.8571428571427,42.625,2107.142857142857,54.333333333333336,2142.8571428571427,56C2178.5714285714284,57.666666666666664,2192.8571428571427,49.375,2228.5714285714284,50C2264.285714285714,50.625,2278.5714285714284,58.791666666666664,2314.285714285714,59C2350,59.208333333333336,2330.059523809524,-20.04166666666667,2400,51C2469.940476190476,122.04166666666667,3254.1666666666665,223.125,2650,400C2045.8333333333335,576.875,156.25,795.8333333333334,-500,900"
      transform="matrix(1,0,0,1,0,300)" opacity="0.70"></path>
    <path
      d="M-10,10C9.94047619047619,9.375,47.916666666666664,8.25,85.71428571428571,7C123.51190476190476,5.75,135.71428571428572,4,171.42857142857142,4C207.1428571428571,4,221.4285714285714,6.791666666666667,257.1428571428571,7C292.85714285714283,7.208333333333333,307.1428571428571,4.375,342.85714285714283,5C378.57142857142856,5.625,392.85714285714283,9.166666666666666,428.57142857142856,10C464.2857142857143,10.833333333333334,478.5714285714285,6.916666666666666,514.2857142857142,9C549.9999999999999,11.083333333333334,564.2857142857143,20.416666666666668,600,20C635.7142857142857,19.583333333333332,650,7,685.7142857142857,7C721.4285714285713,7,735.7142857142857,16.875,771.4285714285713,20C807.142857142857,23.125,821.4285714285714,21.166666666666668,857.1428571428571,22C892.8571428571428,22.833333333333332,907.1428571428571,24,942.8571428571428,24C978.5714285714284,24,992.8571428571428,21.166666666666668,1028.5714285714284,22C1064.2857142857142,22.833333333333332,1078.5714285714284,27.791666666666668,1114.2857142857142,28C1150,28.208333333333332,1164.2857142857142,22.166666666666668,1200,23C1235.7142857142858,23.833333333333332,1249.9999999999998,31.791666666666668,1285.7142857142856,32C1321.4285714285713,32.208333333333336,1335.7142857142856,24,1371.4285714285713,24C1407.142857142857,24,1421.4285714285713,29.291666666666668,1457.142857142857,32C1492.857142857143,34.708333333333336,1507.1428571428569,35.75,1542.8571428571427,37C1578.5714285714284,38.25,1592.8571428571427,37.583333333333336,1628.5714285714284,38C1664.2857142857142,38.416666666666664,1678.5714285714284,37.958333333333336,1714.2857142857142,39C1750,40.041666666666664,1764.285714285714,43,1799.9999999999998,43C1835.7142857142856,43,1849.9999999999998,36.916666666666664,1885.7142857142856,39C1921.4285714285713,41.083333333333336,1935.7142857142856,52.375,1971.4285714285713,53C2007.142857142857,53.625,2021.428571428571,41.375,2057.142857142857,42C2092.8571428571427,42.625,2107.142857142857,54.333333333333336,2142.8571428571427,56C2178.5714285714284,57.666666666666664,2192.8571428571427,49.375,2228.5714285714284,50C2264.285714285714,50.625,2278.5714285714284,58.791666666666664,2314.285714285714,59C2350,59.208333333333336,2330.059523809524,-20.04166666666667,2400,51C2469.940476190476,122.04166666666667,3254.1666666666665,223.125,2650,400C2045.8333333333335,576.875,156.25,795.8333333333334,-500,900"
      transform="matrix(1,0,0,1,0,325)" opacity="0.76"></path>
    <path
      d="M-10,10C9.94047619047619,9.375,47.916666666666664,8.25,85.71428571428571,7C123.51190476190476,5.75,135.71428571428572,4,171.42857142857142,4C207.1428571428571,4,221.4285714285714,6.791666666666667,257.1428571428571,7C292.85714285714283,7.208333333333333,307.1428571428571,4.375,342.85714285714283,5C378.57142857142856,5.625,392.85714285714283,9.166666666666666,428.57142857142856,10C464.2857142857143,10.833333333333334,478.5714285714285,6.916666666666666,514.2857142857142,9C549.9999999999999,11.083333333333334,564.2857142857143,20.416666666666668,600,20C635.7142857142857,19.583333333333332,650,7,685.7142857142857,7C721.4285714285713,7,735.7142857142857,16.875,771.4285714285713,20C807.142857142857,23.125,821.4285714285714,21.166666666666668,857.1428571428571,22C892.8571428571428,22.833333333333332,907.1428571428571,24,942.8571428571428,24C978.5714285714284,24,992.8571428571428,21.166666666666668,1028.5714285714284,22C1064.2857142857142,22.833333333333332,1078.5714285714284,27.791666666666668,1114.2857142857142,28C1150,28.208333333333332,1164.2857142857142,22.166666666666668,1200,23C1235.7142857142858,23.833333333333332,1249.9999999999998,31.791666666666668,1285.7142857142856,32C1321.4285714285713,32.208333333333336,1335.7142857142856,24,1371.4285714285713,24C1407.142857142857,24,1421.4285714285713,29.291666666666668,1457.142857142857,32C1492.857142857143,34.708333333333336,1507.1428571428569,35.75,1542.8571428571427,37C1578.5714285714284,38.25,1592.8571428571427,37.583333333333336,1628.5714285714284,38C1664.2857142857142,38.416666666666664,1678.5714285714284,37.958333333333336,1714.2857142857142,39C1750,40.041666666666664,1764.285714285714,43,1799.9999999999998,43C1835.7142857142856,43,1849.9999999999998,36.916666666666664,1885.7142857142856,39C1921.4285714285713,41.083333333333336,1935.7142857142856,52.375,1971.4285714285713,53C2007.142857142857,53.625,2021.428571428571,41.375,2057.142857142857,42C2092.8571428571427,42.625,2107.142857142857,54.333333333333336,2142.8571428571427,56C2178.5714285714284,57.666666666666664,2192.8571428571427,49.375,2228.5714285714284,50C2264.285714285714,50.625,2278.5714285714284,58.791666666666664,2314.285714285714,59C2350,59.208333333333336,2330.059523809524,-20.04166666666667,2400,51C2469.940476190476,122.04166666666667,3254.1666666666665,223.125,2650,400C2045.8333333333335,576.875,156.25,795.8333333333334,-500,900"
      transform="matrix(1,0,0,1,0,350)" opacity="0.82"></path>
    <path
      d="M-10,10C9.94047619047619,9.375,47.916666666666664,8.25,85.71428571428571,7C123.51190476190476,5.75,135.71428571428572,4,171.42857142857142,4C207.1428571428571,4,221.4285714285714,6.791666666666667,257.1428571428571,7C292.85714285714283,7.208333333333333,307.1428571428571,4.375,342.85714285714283,5C378.57142857142856,5.625,392.85714285714283,9.166666666666666,428.57142857142856,10C464.2857142857143,10.833333333333334,478.5714285714285,6.916666666666666,514.2857142857142,9C549.9999999999999,11.083333333333334,564.2857142857143,20.416666666666668,600,20C635.7142857142857,19.583333333333332,650,7,685.7142857142857,7C721.4285714285713,7,735.7142857142857,16.875,771.4285714285713,20C807.142857142857,23.125,821.4285714285714,21.166666666666668,857.1428571428571,22C892.8571428571428,22.833333333333332,907.1428571428571,24,942.8571428571428,24C978.5714285714284,24,992.8571428571428,21.166666666666668,1028.5714285714284,22C1064.2857142857142,22.833333333333332,1078.5714285714284,27.791666666666668,1114.2857142857142,28C1150,28.208333333333332,1164.2857142857142,22.166666666666668,1200,23C1235.7142857142858,23.833333333333332,1249.9999999999998,31.791666666666668,1285.7142857142856,32C1321.4285714285713,32.208333333333336,1335.7142857142856,24,1371.4285714285713,24C1407.142857142857,24,1421.4285714285713,29.291666666666668,1457.142857142857,32C1492.857142857143,34.708333333333336,1507.1428571428569,35.75,1542.8571428571427,37C1578.5714285714284,38.25,1592.8571428571427,37.583333333333336,1628.5714285714284,38C1664.2857142857142,38.416666666666664,1678.5714285714284,37.958333333333336,1714.2857142857142,39C1750,40.041666666666664,1764.285714285714,43,1799.9999999999998,43C1835.7142857142856,43,1849.9999999999998,36.916666666666664,1885.7142857142856,39C1921.4285714285713,41.083333333333336,1935.7142857142856,52.375,1971.4285714285713,53C2007.142857142857,53.625,2021.428571428571,41.375,2057.142857142857,42C2092.8571428571427,42.625,2107.142857142857,54.333333333333336,2142.8571428571427,56C2178.5714285714284,57.666666666666664,2192.8571428571427,49.375,2228.5714285714284,50C2264.285714285714,50.625,2278.5714285714284,58.791666666666664,2314.285714285714,59C2350,59.208333333333336,2330.059523809524,-20.04166666666667,2400,51C2469.940476190476,122.04166666666667,3254.1666666666665,223.125,2650,400C2045.8333333333335,576.875,156.25,795.8333333333334,-500,900"
      transform="matrix(1,0,0,1,0,375)" opacity="0.88"></path>
    <path
      d="M-10,10C9.94047619047619,9.375,47.916666666666664,8.25,85.71428571428571,7C123.51190476190476,5.75,135.71428571428572,4,171.42857142857142,4C207.1428571428571,4,221.4285714285714,6.791666666666667,257.1428571428571,7C292.85714285714283,7.208333333333333,307.1428571428571,4.375,342.85714285714283,5C378.57142857142856,5.625,392.85714285714283,9.166666666666666,428.57142857142856,10C464.2857142857143,10.833333333333334,478.5714285714285,6.916666666666666,514.2857142857142,9C549.9999999999999,11.083333333333334,564.2857142857143,20.416666666666668,600,20C635.7142857142857,19.583333333333332,650,7,685.7142857142857,7C721.4285714285713,7,735.7142857142857,16.875,771.4285714285713,20C807.142857142857,23.125,821.4285714285714,21.166666666666668,857.1428571428571,22C892.8571428571428,22.833333333333332,907.1428571428571,24,942.8571428571428,24C978.5714285714284,24,992.8571428571428,21.166666666666668,1028.5714285714284,22C1064.2857142857142,22.833333333333332,1078.5714285714284,27.791666666666668,1114.2857142857142,28C1150,28.208333333333332,1164.2857142857142,22.166666666666668,1200,23C1235.7142857142858,23.833333333333332,1249.9999999999998,31.791666666666668,1285.7142857142856,32C1321.4285714285713,32.208333333333336,1335.7142857142856,24,1371.4285714285713,24C1407.142857142857,24,1421.4285714285713,29.291666666666668,1457.142857142857,32C1492.857142857143,34.708333333333336,1507.1428571428569,35.75,1542.8571428571427,37C1578.5714285714284,38.25,1592.8571428571427,37.583333333333336,1628.5714285714284,38C1664.2857142857142,38.416666666666664,1678.5714285714284,37.958333333333336,1714.2857142857142,39C1750,40.041666666666664,1764.285714285714,43,1799.9999999999998,43C1835.7142857142856,43,1849.9999999999998,36.916666666666664,1885.7142857142856,39C1921.4285714285713,41.083333333333336,1935.7142857142856,52.375,1971.4285714285713,53C2007.142857142857,53.625,2021.428571428571,41.375,2057.142857142857,42C2092.8571428571427,42.625,2107.142857142857,54.333333333333336,2142.8571428571427,56C2178.5714285714284,57.666666666666664,2192.8571428571427,49.375,2228.5714285714284,50C2264.285714285714,50.625,2278.5714285714284,58.791666666666664,2314.285714285714,59C2350,59.208333333333336,2330.059523809524,-20.04166666666667,2400,51C2469.940476190476,122.04166666666667,3254.1666666666665,223.125,2650,400C2045.8333333333335,576.875,156.25,795.8333333333334,-500,900"
      transform="matrix(1,0,0,1,0,400)" opacity="0.94"></path>
    <path
      d="M-10,10C9.94047619047619,9.375,47.916666666666664,8.25,85.71428571428571,7C123.51190476190476,5.75,135.71428571428572,4,171.42857142857142,4C207.1428571428571,4,221.4285714285714,6.791666666666667,257.1428571428571,7C292.85714285714283,7.208333333333333,307.1428571428571,4.375,342.85714285714283,5C378.57142857142856,5.625,392.85714285714283,9.166666666666666,428.57142857142856,10C464.2857142857143,10.833333333333334,478.5714285714285,6.916666666666666,514.2857142857142,9C549.9999999999999,11.083333333333334,564.2857142857143,20.416666666666668,600,20C635.7142857142857,19.583333333333332,650,7,685.7142857142857,7C721.4285714285713,7,735.7142857142857,16.875,771.4285714285713,20C807.142857142857,23.125,821.4285714285714,21.166666666666668,857.1428571428571,22C892.8571428571428,22.833333333333332,907.1428571428571,24,942.8571428571428,24C978.5714285714284,24,992.8571428571428,21.166666666666668,1028.5714285714284,22C1064.2857142857142,22.833333333333332,1078.5714285714284,27.791666666666668,1114.2857142857142,28C1150,28.208333333333332,1164.2857142857142,22.166666666666668,1200,23C1235.7142857142858,23.833333333333332,1249.9999999999998,31.791666666666668,1285.7142857142856,32C1321.4285714285713,32.208333333333336,1335.7142857142856,24,1371.4285714285713,24C1407.142857142857,24,1421.4285714285713,29.291666666666668,1457.142857142857,32C1492.857142857143,34.708333333333336,1507.1428571428569,35.75,1542.8571428571427,37C1578.5714285714284,38.25,1592.8571428571427,37.583333333333336,1628.5714285714284,38C1664.2857142857142,38.416666666666664,1678.5714285714284,37.958333333333336,1714.2857142857142,39C1750,40.041666666666664,1764.285714285714,43,1799.9999999999998,43C1835.7142857142856,43,1849.9999999999998,36.916666666666664,1885.7142857142856,39C1921.4285714285713,41.083333333333336,1935.7142857142856,52.375,1971.4285714285713,53C2007.142857142857,53.625,2021.428571428571,41.375,2057.142857142857,42C2092.8571428571427,42.625,2107.142857142857,54.333333333333336,2142.8571428571427,56C2178.5714285714284,57.666666666666664,2192.8571428571427,49.375,2228.5714285714284,50C2264.285714285714,50.625,2278.5714285714284,58.791666666666664,2314.285714285714,59C2350,59.208333333333336,2330.059523809524,-20.04166666666667,2400,51C2469.940476190476,122.04166666666667,3254.1666666666665,223.125,2650,400C2045.8333333333335,576.875,156.25,795.8333333333334,-500,900"
      transform="matrix(1,0,0,1,0,425)" opacity="1.00"></path>
  </g>
</svg>
