<svg id="visual" viewBox="0 0 960 540" width="960" height="540" xmlns="http://www.w3.org/2000/svg" xmlns:xlink="http://www.w3.org/1999/xlink" version="1.1"><rect x="0" y="0" width="960" height="540" fill="#ffffff"></rect><g fill="#810015"><circle r="59" cx="216" cy="56"></circle><circle r="26" cx="861" cy="381"></circle><circle r="35" cx="479" cy="536"></circle><circle r="39" cx="94" cy="60"></circle><circle r="29" cx="81" cy="450"></circle><circle r="25" cx="705" cy="421"></circle><circle r="49" cx="297" cy="215"></circle><circle r="26" cx="614" cy="281"></circle><circle r="37" cx="439" cy="420"></circle><circle r="32" cx="841" cy="202"></circle><circle r="51" cx="735" cy="125"></circle><circle r="25" cx="101" cy="265"></circle><circle r="39" cx="433" cy="45"></circle><circle r="43" cx="230" cy="471"></circle><circle r="50" cx="563" cy="48"></circle><circle r="41" cx="437" cy="200"></circle><circle r="43" cx="761" cy="537"></circle><circle r="34" cx="18" cy="160"></circle><circle r="40" cx="866" cy="17"></circle><circle r="49" cx="950" cy="297"></circle><circle r="49" cx="339" cy="341"></circle><circle r="30" cx="598" cy="523"></circle><circle r="35" cx="881" cy="533"></circle><circle r="53" cx="617" cy="158"></circle><circle r="56" cx="952" cy="111"></circle><circle r="28" cx="686" cy="18"></circle><circle r="36" cx="563" cy="396"></circle><circle r="46" cx="207" cy="336"></circle><circle r="46" cx="332" cy="536"></circle><circle r="47" cx="737" cy="258"></circle><circle r="27" cx="168" cy="169"></circle></g></svg>