<svg width="648.125px" height="181.2800109863281px" xmlns="http://www.w3.org/2000/svg" viewBox="-74.0625 -15.640005493164054 648.125 181.2800109863281" style="background: rgb(40, 41, 47);" preserveAspectRatio="xMidYMid"><defs><filter id="editing-extrusion" x="-100%" y="-100%" width="300%" height="300%"><feFlood result="color1" flood-color="#ffffff"></feFlood><feConvolveMatrix order="8,8" divisor="1" kernelMatrix="1 0 0 0 0 0 0 0 0 1 0 0 0 0 0 0 0 0 1 0 0 0 0 0 0 0 0 1 0 0 0 0 0 0 0 0 1 0 0 0 0 0 0 0 0 1 0 0 0 0 0 0 0 0 1 0 0 0 0 0 0 0 0 1" in="SourceAlpha" result="extrude"></feConvolveMatrix><feComposite in="color1" in2="extrude" result="comp-extrude" operator="in"></feComposite><feOffset dx="4" dy="4" in="comp-extrude" result="offset-extrude"></feOffset><feMerge><feMergeNode in="offset-extrude"></feMergeNode><feMergeNode in="SourceGraphic"></feMergeNode></feMerge></filter></defs><g filter="url(#editing-extrusion)"><g transform="translate(19.17502097785473, 110.70000457763672)"><path d="M41.51-47.12L41.51-47.12L41.51-47.12Q43.04-50.18 43.04-53.04L43.04-53.04L43.04-53.04Q43.04-55.90 42.74-57.48L42.74-57.48L42.74-57.48Q42.43-59.06 41.72-60.28L41.72-60.28L41.72-60.28Q40.19-62.93 37.13-62.93L37.13-62.93L37.13-62.93Q33.35-62.93 30.29-60.18L30.29-60.18L30.29-60.18Q27.03-57.32 27.03-52.84L27.03-52.84L27.03-52.84Q27.03-49.98 29.02-47.79L29.02-47.79L29.02-47.79Q31.01-45.59 34.07-43.55L34.07-43.55L34.07-43.55Q37.13-41.51 40.60-39.47L40.60-39.47L40.60-39.47Q44.06-37.43 47.12-34.99L47.12-34.99L47.12-34.99Q54.16-29.38 54.16-21.83L54.16-21.83L54.16-21.83Q54.16-16.73 51.46-12.39L51.46-12.39L51.46-12.39Q48.76-8.06 44.27-4.90L44.27-4.90L44.27-4.90Q34.48 2.04 21.52 2.04L21.52 2.04L21.52 2.04Q11.02 2.04 5.61-1.38L5.61-1.38L5.61-1.38Q0.20-4.79 0.20-10.00L0.20-10.00L0.20-10.00Q0.20-19.28 7.45-21.62L7.45-21.62L7.45-21.62Q9.49-22.34 12.60-22.34L12.60-22.34L12.60-22.34Q15.71-22.34 19.28-21.01L19.28-21.01L19.28-21.01Q17.65-16.83 17.65-13.06L17.65-13.06L17.65-13.06Q17.65-4.90 23.46-4.90L23.46-4.90L23.46-4.90Q27.23-4.90 30.35-7.65L30.35-7.65L30.35-7.65Q33.46-10.40 33.46-13.52L33.46-13.52L33.46-13.52Q33.46-16.63 31.47-18.87L31.47-18.87L31.47-18.87Q29.48-21.11 26.52-22.90L26.52-22.90L26.52-22.90Q23.56-24.68 20.15-26.42L20.15-26.42L20.15-26.42Q16.73-28.15 13.77-30.60L13.77-30.60L13.77-30.60Q6.83-36.21 6.83-45.19L6.83-45.19L6.83-45.19Q6.83-51.00 9.69-55.54L9.69-55.54L9.69-55.54Q12.55-60.08 17.14-63.14L17.14-63.14L17.14-63.14Q26.32-69.36 37.59-69.36L37.59-69.36L37.59-69.36Q48.86-69.36 54.32-65.99L54.32-65.99L54.32-65.99Q59.77-62.63 59.77-56.92L59.77-56.92L59.77-56.92Q59.77-51.92 55.90-48.76L55.90-48.76L55.90-48.76Q52.53-46.10 48.45-46.10L48.45-46.10L48.45-46.10Q44.37-46.10 41.51-47.12ZM105.47-15.71L105.47-15.71L105.47-15.71Q107.41-13.26 107.41-9.28L107.41-9.28L107.41-9.28Q107.41-3.77 103.33-0.87L103.33-0.87L103.33-0.87Q99.25 2.04 92.82 2.04L92.82 2.04L92.82 2.04Q89.15 2.04 83.54 1.22L83.54 1.22L83.54 1.22Q72.52-0.51 69.16-0.51L69.16-0.51L69.16-0.51Q65.79-0.51 64.46-0.36L64.46-0.36L64.46-0.36Q63.14-0.20 61.00 0L61.00 0L73.54-67.32L117.50-67.32L117.50-67.32Q117.50-61.10 114.50-57.83L114.50-57.83L114.50-57.83Q111.49-54.57 105.57-54.57L105.57-54.57L105.57-54.57Q99.65-54.57 93.64-57.32L93.64-57.32L90.47-39.47L108.63-39.47L108.63-39.47Q108.63-34.07 105.98-31.06L105.98-31.06L105.98-31.06Q103.33-28.05 98.89-28.05L98.89-28.05L98.89-28.05Q94.45-28.05 91.70-29.07L91.70-29.07L91.70-29.07Q88.94-30.09 88.64-30.40L88.64-30.40L84.97-11.12L84.97-11.12Q87.41-10.81 92.00-10.81L92.00-10.81L92.00-10.81Q99.86-10.81 105.47-15.71ZM137.70 0L115.87 0L128.32-67.01L128.32-67.01Q138.41-68.14 153.15-68.14L153.15-68.14L153.15-68.14Q167.89-68.14 174.73-63.85L174.73-63.85L174.73-63.85Q181.56-59.57 181.56-50.95L181.56-50.95L181.56-50.95Q181.56-42.33 177.12-36.92L177.12-36.92L177.12-36.92Q172.69-31.52 165.04-29.78L165.04-29.78L165.04-29.78Q166.77-21.32 170.75-14.48L170.75-14.48L170.75-14.48Q174.42-8.06 178.70-6.02L178.70-6.02L178.70-6.02Q177.17-1.73 174.06 0.15L174.06 0.15L174.06 0.15Q170.95 2.04 166.52 2.04L166.52 2.04L166.52 2.04Q162.08 2.04 158.61-0.56L158.61-0.56L158.61-0.56Q155.14-3.16 152.39-7.96L152.39-7.96L152.39-7.96Q146.57-18.36 145.96-34.78L145.96-34.78L146.68-34.78L146.68-34.78Q154.22-34.99 158.00-38.91L158.00-38.91L158.00-38.91Q161.77-42.84 161.77-51.10L161.77-51.10L161.77-51.10Q161.77-61.40 153.10-61.81L153.10-61.81L150.86-61.81L150.86-61.81Q149.94-61.81 149.43-61.71L149.43-61.71L137.70 0ZM187.78-63.24L187.78-63.24L187.78-63.24Q190.74-69.36 198.95-69.36L198.95-69.36L198.95-69.36Q207.16-69.36 210.99-64.62L210.99-64.62L210.99-64.62Q214.81-59.87 214.81-48.96L214.81-48.96L214.81-12.55L239.60-67.22L251.74-67.22L220.01 0L196.15 0L193.09-48.96L193.09-48.96Q192.78-54.37 191.30-58.04L191.30-58.04L191.30-58.04Q189.82-61.71 187.78-63.24ZM268.77 0L246.53 0L259.49-67.32L281.93-67.32L268.77 0ZM337.42-21.11L337.42-21.11L337.42-21.11Q340.07-19.18 340.07-15.05L340.07-15.05L340.07-15.05Q340.07-10.91 338.28-8.01L338.28-8.01L338.28-8.01Q336.50-5.10 333.03-2.86L333.03-2.86L333.03-2.86Q325.58 1.94 312.58 1.94L312.58 1.94L312.58 1.94Q299.57 1.94 292.49-4.85L292.49-4.85L292.49-4.85Q285.40-11.63 285.40-23.66L285.40-23.66L285.40-23.66Q285.40-40.70 294.27-53.65L294.27-53.65L294.27-53.65Q301.00-63.24 313.04-67.32L313.04-67.32L313.04-67.32Q319.26-69.36 325.38-69.36L325.38-69.36L325.38-69.36Q331.50-69.36 335.27-68.54L335.27-68.54L335.27-68.54Q339.05-67.73 341.90-66.10L341.90-66.10L341.90-66.10Q348.13-62.53 348.13-56.81L348.13-56.81L348.13-56.81Q348.13-51.61 343.23-47.74L343.23-47.74L343.23-47.74Q338.74-44.27 335.07-44.27L335.07-44.27L335.07-44.27Q331.40-44.27 329.87-44.78L329.87-44.78L329.87-44.78Q330.28-48.45 330.28-50.85L330.28-50.85L330.28-50.85Q330.28-53.24 330.17-54.98L330.17-54.98L330.17-54.98Q330.07-56.71 329.56-58.34L329.56-58.34L329.56-58.34Q328.54-62.12 325.43-62.12L325.43-62.12L325.43-62.12Q322.32-62.12 319.21-59.21L319.21-59.21L319.21-59.21Q316.10-56.30 313.45-51.41L313.45-51.41L313.45-51.41Q307.43-40.29 307.43-27.13L307.43-27.13L307.43-27.13Q307.43-20.81 311.00-17.19L311.00-17.19L311.00-17.19Q314.57-13.57 322.22-13.57L322.22-13.57L322.22-13.57Q327.93-13.57 333.34-17.34L333.34-17.34L333.34-17.34Q335.68-18.97 337.42-21.11ZM392.09-15.71L392.09-15.71L392.09-15.71Q394.03-13.26 394.03-9.28L394.03-9.28L394.03-9.28Q394.03-3.77 389.95-0.87L389.95-0.87L389.95-0.87Q385.87 2.04 379.44 2.04L379.44 2.04L379.44 2.04Q375.77 2.04 370.16 1.22L370.16 1.22L370.16 1.22Q359.14-0.51 355.78-0.51L355.78-0.51L355.78-0.51Q352.41-0.51 351.08-0.36L351.08-0.36L351.08-0.36Q349.76-0.20 347.62 0L347.62 0L360.16-67.32L404.12-67.32L404.12-67.32Q404.12-61.10 401.12-57.83L401.12-57.83L401.12-57.83Q398.11-54.57 392.19-54.57L392.19-54.57L392.19-54.57Q386.27-54.57 380.26-57.32L380.26-57.32L377.09-39.47L395.25-39.47L395.25-39.47Q395.25-34.07 392.60-31.06L392.60-31.06L392.60-31.06Q389.95-28.05 385.51-28.05L385.51-28.05L385.51-28.05Q381.07-28.05 378.32-29.07L378.32-29.07L378.32-29.07Q375.56-30.09 375.26-30.40L375.26-30.40L371.59-11.12L371.59-11.12Q374.03-10.81 378.62-10.81L378.62-10.81L378.62-10.81Q386.48-10.81 392.09-15.71ZM443.19-47.12L443.19-47.12L443.19-47.12Q444.72-50.18 444.72-53.04L444.72-53.04L444.72-53.04Q444.72-55.90 444.41-57.48L444.41-57.48L444.41-57.48Q444.11-59.06 443.39-60.28L443.39-60.28L443.39-60.28Q441.86-62.93 438.80-62.93L438.80-62.93L438.80-62.93Q435.03-62.93 431.97-60.18L431.97-60.18L431.97-60.18Q428.71-57.32 428.71-52.84L428.71-52.84L428.71-52.84Q428.71-49.98 430.70-47.79L430.70-47.79L430.70-47.79Q432.68-45.59 435.74-43.55L435.74-43.55L435.74-43.55Q438.80-41.51 442.27-39.47L442.27-39.47L442.27-39.47Q445.74-37.43 448.80-34.99L448.80-34.99L448.80-34.99Q455.84-29.38 455.84-21.83L455.84-21.83L455.84-21.83Q455.84-16.73 453.14-12.39L453.14-12.39L453.14-12.39Q450.43-8.06 445.94-4.90L445.94-4.90L445.94-4.90Q436.15 2.04 423.20 2.04L423.20 2.04L423.20 2.04Q412.69 2.04 407.29-1.38L407.29-1.38L407.29-1.38Q401.88-4.79 401.88-10.00L401.88-10.00L401.88-10.00Q401.88-19.28 409.12-21.62L409.12-21.62L409.12-21.62Q411.16-22.34 414.27-22.34L414.27-22.34L414.27-22.34Q417.38-22.34 420.95-21.01L420.95-21.01L420.95-21.01Q419.32-16.83 419.32-13.06L419.32-13.06L419.32-13.06Q419.32-4.90 425.14-4.90L425.14-4.90L425.14-4.90Q428.91-4.90 432.02-7.65L432.02-7.65L432.02-7.65Q435.13-10.40 435.13-13.52L435.13-13.52L435.13-13.52Q435.13-16.63 433.14-18.87L433.14-18.87L433.14-18.87Q431.15-21.11 428.20-22.90L428.20-22.90L428.20-22.90Q425.24-24.68 421.82-26.42L421.82-26.42L421.82-26.42Q418.40-28.15 415.45-30.60L415.45-30.60L415.45-30.60Q408.51-36.21 408.51-45.19L408.51-45.19L408.51-45.19Q408.51-51.00 411.37-55.54L411.37-55.54L411.37-55.54Q414.22-60.08 418.81-63.14L418.81-63.14L418.81-63.14Q427.99-69.36 439.26-69.36L439.26-69.36L439.26-69.36Q450.53-69.36 455.99-65.99L455.99-65.99L455.99-65.99Q461.45-62.63 461.45-56.92L461.45-56.92L461.45-56.92Q461.45-51.92 457.57-48.76L457.57-48.76L457.57-48.76Q454.21-46.10 450.13-46.10L450.13-46.10L450.13-46.10Q446.05-46.10 443.19-47.12Z" fill="#0a0a0a"></path></g></g><style>text {
  font-size: 64px;
  font-family: Arial Black;
  dominant-baseline: central;
  text-anchor: middle;
}</style></svg>