<svg xmlns="http://www.w3.org/2000/svg" version="1.1" xmlns:xlink="http://www.w3.org/1999/xlink"
  xmlns:svgjs="http://svgjs.dev/svgjs" viewBox="0 0 2400 800">
  <g stroke-width="4.5" stroke="url(#oooscillate-grad)" fill="none" stroke-linecap="round">
    <path d="M 0 777 Q 600 400 1200 400 Q 1800 400 2400 777" opacity="0.27"></path>
    <path d="M 0 770 Q 600 400 1200 400 Q 1800 400 2400 770" opacity="0.89"></path>
    <path d="M 0 763 Q 600 400 1200 400 Q 1800 400 2400 763" opacity="0.85"></path>
    <path d="M 0 756 Q 600 400 1200 400 Q 1800 400 2400 756" opacity="0.49"></path>
    <path d="M 0 749 Q 600 400 1200 400 Q 1800 400 2400 749" opacity="0.54"></path>
    <path d="M 0 742 Q 600 400 1200 400 Q 1800 400 2400 742" opacity="0.30"></path>
    <path d="M 0 735 Q 600 400 1200 400 Q 1800 400 2400 735" opacity="0.97"></path>
    <path d="M 0 728 Q 600 400 1200 400 Q 1800 400 2400 728" opacity="0.12"></path>
    <path d="M 0 721 Q 600 400 1200 400 Q 1800 400 2400 721" opacity="0.22"></path>
    <path d="M 0 714 Q 600 400 1200 400 Q 1800 400 2400 714" opacity="0.85"></path>
    <path d="M 0 707 Q 600 400 1200 400 Q 1800 400 2400 707" opacity="0.44"></path>
    <path d="M 0 700 Q 600 400 1200 400 Q 1800 400 2400 700" opacity="0.69"></path>
    <path d="M 0 693 Q 600 400 1200 400 Q 1800 400 2400 693" opacity="0.58"></path>
    <path d="M 0 686 Q 600 400 1200 400 Q 1800 400 2400 686" opacity="0.68"></path>
    <path d="M 0 679 Q 600 400 1200 400 Q 1800 400 2400 679" opacity="0.75"></path>
    <path d="M 0 672 Q 600 400 1200 400 Q 1800 400 2400 672" opacity="0.38"></path>
    <path d="M 0 665 Q 600 400 1200 400 Q 1800 400 2400 665" opacity="0.96"></path>
    <path d="M 0 658 Q 600 400 1200 400 Q 1800 400 2400 658" opacity="0.07"></path>
    <path d="M 0 651 Q 600 400 1200 400 Q 1800 400 2400 651" opacity="0.31"></path>
    <path d="M 0 644 Q 600 400 1200 400 Q 1800 400 2400 644" opacity="0.22"></path>
    <path d="M 0 637 Q 600 400 1200 400 Q 1800 400 2400 637" opacity="0.70"></path>
    <path d="M 0 630 Q 600 400 1200 400 Q 1800 400 2400 630" opacity="0.91"></path>
    <path d="M 0 623 Q 600 400 1200 400 Q 1800 400 2400 623" opacity="0.50"></path>
    <path d="M 0 616 Q 600 400 1200 400 Q 1800 400 2400 616" opacity="0.24"></path>
    <path d="M 0 609 Q 600 400 1200 400 Q 1800 400 2400 609" opacity="0.09"></path>
    <path d="M 0 602 Q 600 400 1200 400 Q 1800 400 2400 602" opacity="0.47"></path>
    <path d="M 0 595 Q 600 400 1200 400 Q 1800 400 2400 595" opacity="0.60"></path>
    <path d="M 0 588 Q 600 400 1200 400 Q 1800 400 2400 588" opacity="0.74"></path>
    <path d="M 0 581 Q 600 400 1200 400 Q 1800 400 2400 581" opacity="0.44"></path>
    <path d="M 0 574 Q 600 400 1200 400 Q 1800 400 2400 574" opacity="0.80"></path>
    <path d="M 0 567 Q 600 400 1200 400 Q 1800 400 2400 567" opacity="0.82"></path>
    <path d="M 0 560 Q 600 400 1200 400 Q 1800 400 2400 560" opacity="0.35"></path>
    <path d="M 0 553 Q 600 400 1200 400 Q 1800 400 2400 553" opacity="0.16"></path>
    <path d="M 0 546 Q 600 400 1200 400 Q 1800 400 2400 546" opacity="0.67"></path>
    <path d="M 0 539 Q 600 400 1200 400 Q 1800 400 2400 539" opacity="0.66"></path>
    <path d="M 0 532 Q 600 400 1200 400 Q 1800 400 2400 532" opacity="0.46"></path>
    <path d="M 0 525 Q 600 400 1200 400 Q 1800 400 2400 525" opacity="0.84"></path>
    <path d="M 0 518 Q 600 400 1200 400 Q 1800 400 2400 518" opacity="1.00"></path>
    <path d="M 0 511 Q 600 400 1200 400 Q 1800 400 2400 511" opacity="0.34"></path>
    <path d="M 0 504 Q 600 400 1200 400 Q 1800 400 2400 504" opacity="0.75"></path>
    <path d="M 0 497 Q 600 400 1200 400 Q 1800 400 2400 497" opacity="0.45"></path>
    <path d="M 0 490 Q 600 400 1200 400 Q 1800 400 2400 490" opacity="0.60"></path>
    <path d="M 0 483 Q 600 400 1200 400 Q 1800 400 2400 483" opacity="0.92"></path>
    <path d="M 0 476 Q 600 400 1200 400 Q 1800 400 2400 476" opacity="0.25"></path>
    <path d="M 0 469 Q 600 400 1200 400 Q 1800 400 2400 469" opacity="0.35"></path>
    <path d="M 0 462 Q 600 400 1200 400 Q 1800 400 2400 462" opacity="0.45"></path>
    <path d="M 0 455 Q 600 400 1200 400 Q 1800 400 2400 455" opacity="0.99"></path>
    <path d="M 0 448 Q 600 400 1200 400 Q 1800 400 2400 448" opacity="0.97"></path>
    <path d="M 0 441 Q 600 400 1200 400 Q 1800 400 2400 441" opacity="0.95"></path>
    <path d="M 0 434 Q 600 400 1200 400 Q 1800 400 2400 434" opacity="0.16"></path>
    <path d="M 0 427 Q 600 400 1200 400 Q 1800 400 2400 427" opacity="0.55"></path>
    <path d="M 0 420 Q 600 400 1200 400 Q 1800 400 2400 420" opacity="0.43"></path>
    <path d="M 0 413 Q 600 400 1200 400 Q 1800 400 2400 413" opacity="0.54"></path>
    <path d="M 0 406 Q 600 400 1200 400 Q 1800 400 2400 406" opacity="0.34"></path>
    <path d="M 0 399 Q 600 400 1200 400 Q 1800 400 2400 399" opacity="0.37"></path>
    <path d="M 0 392 Q 600 400 1200 400 Q 1800 400 2400 392" opacity="0.86"></path>
    <path d="M 0 385 Q 600 400 1200 400 Q 1800 400 2400 385" opacity="0.17"></path>
    <path d="M 0 378 Q 600 400 1200 400 Q 1800 400 2400 378" opacity="0.36"></path>
    <path d="M 0 371 Q 600 400 1200 400 Q 1800 400 2400 371" opacity="0.45"></path>
    <path d="M 0 364 Q 600 400 1200 400 Q 1800 400 2400 364" opacity="0.10"></path>
    <path d="M 0 357 Q 600 400 1200 400 Q 1800 400 2400 357" opacity="0.59"></path>
    <path d="M 0 350 Q 600 400 1200 400 Q 1800 400 2400 350" opacity="0.30"></path>
    <path d="M 0 343 Q 600 400 1200 400 Q 1800 400 2400 343" opacity="0.61"></path>
    <path d="M 0 336 Q 600 400 1200 400 Q 1800 400 2400 336" opacity="0.66"></path>
    <path d="M 0 329 Q 600 400 1200 400 Q 1800 400 2400 329" opacity="0.57"></path>
    <path d="M 0 322 Q 600 400 1200 400 Q 1800 400 2400 322" opacity="0.28"></path>
    <path d="M 0 315 Q 600 400 1200 400 Q 1800 400 2400 315" opacity="0.55"></path>
    <path d="M 0 308 Q 600 400 1200 400 Q 1800 400 2400 308" opacity="0.61"></path>
    <path d="M 0 301 Q 600 400 1200 400 Q 1800 400 2400 301" opacity="0.52"></path>
    <path d="M 0 294 Q 600 400 1200 400 Q 1800 400 2400 294" opacity="0.49"></path>
    <path d="M 0 287 Q 600 400 1200 400 Q 1800 400 2400 287" opacity="0.64"></path>
    <path d="M 0 280 Q 600 400 1200 400 Q 1800 400 2400 280" opacity="0.90"></path>
    <path d="M 0 273 Q 600 400 1200 400 Q 1800 400 2400 273" opacity="0.22"></path>
    <path d="M 0 266 Q 600 400 1200 400 Q 1800 400 2400 266" opacity="0.88"></path>
    <path d="M 0 259 Q 600 400 1200 400 Q 1800 400 2400 259" opacity="0.82"></path>
    <path d="M 0 252 Q 600 400 1200 400 Q 1800 400 2400 252" opacity="0.91"></path>
    <path d="M 0 245 Q 600 400 1200 400 Q 1800 400 2400 245" opacity="0.86"></path>
    <path d="M 0 238 Q 600 400 1200 400 Q 1800 400 2400 238" opacity="0.22"></path>
    <path d="M 0 231 Q 600 400 1200 400 Q 1800 400 2400 231" opacity="0.92"></path>
    <path d="M 0 224 Q 600 400 1200 400 Q 1800 400 2400 224" opacity="0.30"></path>
    <path d="M 0 217 Q 600 400 1200 400 Q 1800 400 2400 217" opacity="0.76"></path>
    <path d="M 0 210 Q 600 400 1200 400 Q 1800 400 2400 210" opacity="0.48"></path>
    <path d="M 0 203 Q 600 400 1200 400 Q 1800 400 2400 203" opacity="0.52"></path>
    <path d="M 0 196 Q 600 400 1200 400 Q 1800 400 2400 196" opacity="0.35"></path>
    <path d="M 0 189 Q 600 400 1200 400 Q 1800 400 2400 189" opacity="0.09"></path>
    <path d="M 0 182 Q 600 400 1200 400 Q 1800 400 2400 182" opacity="0.35"></path>
    <path d="M 0 175 Q 600 400 1200 400 Q 1800 400 2400 175" opacity="0.16"></path>
    <path d="M 0 168 Q 600 400 1200 400 Q 1800 400 2400 168" opacity="0.37"></path>
    <path d="M 0 161 Q 600 400 1200 400 Q 1800 400 2400 161" opacity="0.68"></path>
    <path d="M 0 154 Q 600 400 1200 400 Q 1800 400 2400 154" opacity="0.46"></path>
    <path d="M 0 147 Q 600 400 1200 400 Q 1800 400 2400 147" opacity="0.53"></path>
    <path d="M 0 140 Q 600 400 1200 400 Q 1800 400 2400 140" opacity="0.87"></path>
    <path d="M 0 133 Q 600 400 1200 400 Q 1800 400 2400 133" opacity="0.74"></path>
    <path d="M 0 126 Q 600 400 1200 400 Q 1800 400 2400 126" opacity="0.09"></path>
    <path d="M 0 119 Q 600 400 1200 400 Q 1800 400 2400 119" opacity="0.59"></path>
    <path d="M 0 112 Q 600 400 1200 400 Q 1800 400 2400 112" opacity="0.94"></path>
    <path d="M 0 105 Q 600 400 1200 400 Q 1800 400 2400 105" opacity="0.67"></path>
    <path d="M 0 98 Q 600 400 1200 400 Q 1800 400 2400 98" opacity="0.74"></path>
    <path d="M 0 91 Q 600 400 1200 400 Q 1800 400 2400 91" opacity="0.78"></path>
    <path d="M 0 84 Q 600 400 1200 400 Q 1800 400 2400 84" opacity="0.70"></path>
    <path d="M 0 77 Q 600 400 1200 400 Q 1800 400 2400 77" opacity="0.54"></path>
    <path d="M 0 70 Q 600 400 1200 400 Q 1800 400 2400 70" opacity="0.94"></path>
    <path d="M 0 63 Q 600 400 1200 400 Q 1800 400 2400 63" opacity="0.54"></path>
    <path d="M 0 56 Q 600 400 1200 400 Q 1800 400 2400 56" opacity="0.33"></path>
    <path d="M 0 49 Q 600 400 1200 400 Q 1800 400 2400 49" opacity="0.83"></path>
    <path d="M 0 42 Q 600 400 1200 400 Q 1800 400 2400 42" opacity="0.52"></path>
    <path d="M 0 35 Q 600 400 1200 400 Q 1800 400 2400 35" opacity="0.85"></path>
    <path d="M 0 28 Q 600 400 1200 400 Q 1800 400 2400 28" opacity="0.22"></path>
    <path d="M 0 21 Q 600 400 1200 400 Q 1800 400 2400 21" opacity="0.41"></path>
    <path d="M 0 14 Q 600 400 1200 400 Q 1800 400 2400 14" opacity="0.82"></path>
  </g>
  <defs>
    <linearGradient x1="50%" y1="0%" x2="50%" y2="100%" id="oooscillate-grad">
      <stop stop-color="hsl(0, 0%, 0%)" stop-opacity="1" offset="0%"></stop>
      <stop stop-color="hsl(0, 0%, 27%)" stop-opacity="1" offset="100%"></stop>
    </linearGradient>
  </defs>
</svg>
